<?xml version="1.0" encoding="utf-8"?>
<!-- Generator: Adobe Illustrator 20.0.0, SVG Export Plug-In . SVG Version: 6.00 Build 0)  -->
<svg version="1.1" id="Layer_1" xmlns="http://www.w3.org/2000/svg" xmlns:xlink="http://www.w3.org/1999/xlink" x="0px" y="0px"
	 viewBox="0 0 251.1 144.6" style="enable-background:new 0 0 251.1 144.6;" xml:space="preserve">
<style type="text/css">
	.st0{opacity:0.1;}
	.st1{fill:#D7E4EC;}
</style>
<g class="st0">
	<path class="st1" d="M195.4,142c-0.4-0.4-0.9-0.6-1.3-0.4c-0.4,0.1-0.8,0.5-0.9,1l-0.6,2.1h1l0.5-1.8c0.1-0.2,0.2-0.3,0.3-0.4
		c0,0,0.1,0,0.1,0c0.1,0,0.2,0.1,0.3,0.2l2,2h2.8c-0.5-0.1-1-0.2-1.6-0.2L195.4,142z"/>
	<path class="st1" d="M114,140.5c-0.4-1.3-1.7-2.1-3-1.8l-1.8,0.5c-0.7,0.2-1.3,0.7-1.6,1.4l-1.2,2.7c-0.1,0.3-0.4,0.4-0.7,0.3
		c0,0-0.1,0-0.1-0.1l-2.3-1.7c-0.6-0.4-1.4-0.6-2.1-0.4l-1.8,0.5c-1.2,0.3-2,1.5-1.8,2.7h1c-0.2-0.8,0.3-1.6,1.1-1.8l1.8-0.5
		c0.3-0.1,0.5-0.1,0.8,0c0.2,0,0.4,0.1,0.5,0.2l2.3,1.7c0.1,0.1,0.2,0.1,0.3,0.2c0.8,0.3,1.6,0,2-0.8l1.2-2.7c0.2-0.4,0.5-0.7,1-0.9
		l1.8-0.5c0.8-0.2,1.6,0.3,1.9,1.1l1,3.8h1L114,140.5z"/>
	<path class="st1" d="M100.5,143.7l-0.2,0c-0.5,0.1-0.8,0.5-0.9,0.9h1.2l0.1,0c0.1,0,0.2,0,0.3,0c0,0,0,0,0,0h1.4l-0.4-0.5
		C101.6,143.7,101,143.5,100.5,143.7z"/>
	<path class="st1" d="M109.3,142.7c-0.2,0-0.6,0-0.9,0.5l-0.8,1.3c0,0,0,0,0,0c0,0,0,0.1-0.1,0.1h1.1l0.5-0.8l0.2,0.8h1l-0.3-1.2
		C109.9,142.8,109.5,142.7,109.3,142.7z"/>
	<path class="st1" d="M160.7,139.4l-5.3-2.3c-0.8-0.3-1.1-1.2-0.8-2c0-0.1,0.1-0.2,0.2-0.3c0,0,0,0,0,0l3.5-4.7
		c0.8-1.1,1.1-2.5,0.7-3.8l-1-3.6c-0.3-1.2-1.1-2.1-2.1-2.7c-1-0.6-2.2-0.8-3.4-0.4l-12.4,3.3c-2.4,0.6-3.8,3.1-3.2,5.5l1,3.6
		c0.4,1.3,1.3,2.4,2.5,2.9l5.3,2.3c0.8,0.3,1.1,1.2,0.8,2c0,0.1-0.1,0.2-0.2,0.3l-3.5,4.7c-0.1,0.1-0.2,0.3-0.3,0.5h1.2l3.4-4.6
		c0.1-0.1,0.2-0.3,0.3-0.5c0.5-1.3,0-2.7-1.3-3.3l-5.3-2.3c-1-0.4-1.7-1.3-2-2.3l-1-3.6c-0.5-1.9,0.6-3.8,2.5-4.3l12.4-3.3
		c0.6-0.2,1.2-0.2,1.8,0c0.3,0.1,0.6,0.2,0.9,0.4c0.8,0.5,1.4,1.2,1.6,2.1l1,3.6c0.3,1,0.1,2.1-0.6,3l-3.5,4.7
		c-0.1,0.1-0.2,0.3-0.3,0.5c-0.5,1.3,0,2.7,1.3,3.3l5.3,2.3c1,0.4,1.7,1.3,2,2.3l0.5,2h1l-0.6-2.3C162.9,141,162,140,160.7,139.4z"
		/>
	<path class="st1" d="M151.8,144.3c0.4-0.3,0.8-0.4,1.3-0.4l3.1,0.6h3.1c-0.3-0.3-0.7-0.5-1.2-0.6l-4.8-1c-0.8-0.2-1.6,0.1-2.1,0.6
		l-1.1,1h1.5L151.8,144.3z"/>
	<path class="st1" d="M150.1,135.2c0.6-0.2,1.1-0.6,1.5-1.2l1.4-2.7c0.5-0.9,0.2-1.4,0-1.6c-0.2-0.2-0.6-0.6-1.6-0.3l-5.4,1.5
		c-1,0.3-1.2,0.8-1.2,1.1c0,0.3,0,0.9,0.9,1.4l2.6,1.6c0.2,0.1,0.4,0.2,0.7,0.3C149.3,135.3,149.7,135.3,150.1,135.2z M148.7,134.1
		l-2.6-1.6c-0.4-0.2-0.4-0.4-0.4-0.4c0,0,0.1-0.2,0.5-0.3l5.4-1.5c0.3-0.1,0.4-0.1,0.5,0c0,0,0.1,0,0.1,0c0,0,0.1,0.2-0.1,0.6
		l-1.4,2.7c-0.2,0.4-0.5,0.6-0.9,0.7S149.1,134.3,148.7,134.1z"/>
	<path class="st1" d="M133.2,143c-3.5-2-7.9-1.2-10.5,1.6h1.4c1.9-1.6,4.4-2.2,6.8-1.5c0.6,0.2,1.2,0.4,1.8,0.8
		c0.4,0.2,0.8,0.5,1.1,0.8h1.4C134.7,144,134,143.5,133.2,143z"/>
	<path class="st1" d="M173.5,141.1l-5,1.3c-0.5,0.1-1,0.5-1.3,1c-0.2,0.4-0.3,0.8-0.3,1.2h1c0-0.2,0-0.5,0.1-0.7
		c0.2-0.3,0.4-0.4,0.7-0.5l5-1.3c0.6-0.2,1.2,0.2,1.4,0.8l0.3,1.8h1l-0.3-2C175.7,141.5,174.6,140.8,173.5,141.1z"/>
	<path class="st1" d="M99.7,131.7l1.7,1c0.3,0.2,0.5,0.3,0.8,0.3c0.6,0.2,1.2,0.2,1.8,0c0.9-0.2,1.7-0.8,2.1-1.6l6.3-10.8l2.9,1.7
		l8.8,16.5c0.1,0.1,0.2,0.2,0.3,0.2c0,0,0.1,0,0.1,0c0.2,0,0.3-0.1,0.4-0.2l17-29.4c0.1-0.2,0.1-0.3,0-0.5c-0.1-0.1-0.3-0.2-0.4-0.2
		l-18.7,0.7l-14.6-8.4c-1.7-1-3.8-1.3-5.7-0.8c-1.9,0.5-3.5,1.8-4.5,3.5c-2.1,3.6-0.8,8.2,2.7,10.2l2.2,1.3l-5.3,9.1
		C96.2,126.8,97.1,130.2,99.7,131.7z M122.5,110.2c0.1,0,0.2,0.1,0.3,0.1l18-0.6l-16.1,27.9l-8.4-15.9c0-0.1-0.1-0.1-0.2-0.2l-3-1.8
		l6.5-11.3L122.5,110.2z M101.3,113c-3.1-1.8-4.2-5.8-2.4-8.9c0.9-1.5,2.3-2.6,4-3c1.7-0.5,3.4-0.2,4.9,0.7l10.8,6.3l-6.5,11.3
		l-0.2-0.1l-8.1-4.7c0,0,0,0,0,0L101.3,113z M98.6,124.7l5.3-9.1l7.8,4.5l-6.3,10.8c-0.3,0.6-0.9,1-1.5,1.2
		c-0.7,0.2-1.3,0.1-1.9-0.2l-1.7-1C98.1,129.6,97.3,126.9,98.6,124.7z"/>
	<path class="st1" d="M217.1,89.2C217.1,89.2,217.1,89.2,217.1,89.2c0-0.1,0.1-0.2,0-0.3l-1.8-6.6c0-0.1-0.1-0.2-0.1-0.2
		c0,0,0,0,0,0c0,0,0,0,0,0l-5.4-3.1c-0.3-0.2-0.7-0.3-1.1-0.1c-0.4,0.1-0.7,0.3-0.9,0.7l-7,12.1c-0.4,0.7-0.2,1.6,0.5,2l8.7,5
		c0.1,0.1,0.2,0.1,0.4,0.1c0.2,0.1,0.5,0.1,0.8,0c0.4-0.1,0.7-0.3,0.9-0.7L217.1,89.2C217.1,89.3,217.1,89.2,217.1,89.2z M215.8,88
		L215.8,88l-2.7-1.5l1.6-2.7L215.8,88z M211.1,97.6c-0.1,0.2-0.5,0.3-0.7,0.2l-8.7-5c-0.2-0.1-0.3-0.5-0.2-0.7l7-12.1
		c0.1-0.1,0.2-0.2,0.3-0.2c0.1,0,0.2,0,0.3,0c0,0,0.1,0,0.1,0.1l5,2.9l-2.2,3.7c-0.1,0.2-0.1,0.5,0.2,0.7l3.7,2.2L211.1,97.6z"/>
	<path class="st1" d="M226.6,80.4c0.4,0.1,0.8,0.1,1.3,0l1.8-0.5c0.7-0.2,1.3-0.7,1.6-1.4l1.2-2.7c0.1-0.1,0.2-0.2,0.3-0.3
		c0.1-0.1,0.3,0,0.4,0c0,0,0.1,0,0.1,0.1l2.3,1.7c0.6,0.4,1.4,0.6,2.1,0.4l1.8-0.5c1.3-0.4,2.1-1.7,1.8-3l-1.7-6.2
		c-0.4-1.3-1.7-2.1-3-1.8l-1.8,0.5c-0.7,0.2-1.3,0.7-1.6,1.4l-1.2,2.7c-0.1,0.1-0.2,0.2-0.3,0.3c-0.1,0.1-0.3,0-0.4,0
		c0,0-0.1,0-0.1-0.1l-2.3-1.7c-0.6-0.4-1.4-0.6-2.1-0.4l-1.8,0.5c-1.3,0.4-2.1,1.7-1.8,3l1.7,6.2C225.1,79.6,225.7,80.2,226.6,80.4z
		 M225.2,70.4l1.8-0.5c0.3-0.1,0.5-0.1,0.8,0c0.2,0,0.4,0.1,0.5,0.2l2.3,1.7c0.1,0.1,0.2,0.1,0.3,0.2c0.4,0.2,0.8,0.2,1.1,0
		c0.4-0.1,0.7-0.4,0.8-0.8l1.2-2.7c0.2-0.4,0.5-0.7,1-0.9l1.8-0.5c0.4-0.1,0.8-0.1,1.2,0.2c0.4,0.2,0.6,0.5,0.7,0.9l1.7,6.2
		c0.1,0.4,0.1,0.8-0.2,1.2c-0.2,0.4-0.5,0.6-0.9,0.7l-1.8,0.5c-0.4,0.1-0.9,0-1.3-0.2l-2.3-1.7c0,0,0,0,0,0
		c-0.1-0.1-0.2-0.1-0.3-0.2c-0.4-0.2-0.8-0.2-1.1,0c-0.4,0.1-0.7,0.4-0.8,0.8l-1.2,2.7c-0.2,0.4-0.5,0.7-1,0.9l-1.8,0.5
		c-0.8,0.2-1.6-0.3-1.9-1.1l-1.7-6.2C223.9,71.4,224.4,70.6,225.2,70.4z"/>
	<path class="st1" d="M226.8,78.3c0.1,0.1,0.2,0.1,0.3,0.1c0.2,0.1,0.4,0.1,0.7,0l0.2,0c0.5-0.1,1-0.6,1.1-1.1l0.5-2.4
		c0.1-0.5,0-0.9-0.3-1.3l-1.6-1.8c-0.4-0.4-0.9-0.6-1.5-0.4l-0.2,0c-0.3,0.1-0.6,0.3-0.8,0.6c-0.2,0.3-0.2,0.6-0.1,1l1.2,4.6
		C226.2,77.8,226.5,78.1,226.8,78.3z M225.9,72.4c0-0.1,0.1-0.1,0.2-0.1l0.2,0c0.1,0,0.2,0,0.3,0c0.1,0,0.2,0.1,0.3,0.2l1.6,1.8
		c0.1,0.1,0.2,0.3,0.1,0.4L228,77c0,0.2-0.2,0.3-0.4,0.4l-0.2,0c-0.2,0-0.3-0.1-0.4-0.2l-1.2-4.6C225.8,72.5,225.8,72.4,225.9,72.4z
		"/>
	<path class="st1" d="M233.6,74.1l1.4,0.7c0.1,0.1,0.2,0.1,0.3,0.1c0.4,0.1,0.6,0,0.8-0.1c0.1-0.1,0.4-0.4,0.2-1l-0.7-2.7
		c-0.2-0.6-0.6-0.8-0.7-0.8c-0.2,0-0.6,0-0.9,0.5l-0.8,1.3c-0.2,0.3-0.3,0.7-0.2,1.1C233,73.6,233.3,73.9,233.6,74.1z M233.9,72.6
		l0.8-1.2l0.7,2.5l-1.3-0.7c-0.1-0.1-0.2-0.2-0.2-0.3C233.8,72.8,233.8,72.7,233.9,72.6z"/>
	<path class="st1" d="M218.5,61.8c-1.2-4.5-5.9-7.2-10.4-6c-4.5,1.2-7.2,5.9-6,10.4c0.6,2.2,2,4,4,5.2c0.7,0.4,1.3,0.7,2.1,0.9
		c1.4,0.4,2.9,0.4,4.4,0C217,71,219.7,66.3,218.5,61.8z M212.2,71.3c-1.9,0.5-4,0.3-5.7-0.8c-1.7-1-3-2.6-3.5-4.6
		c-1.1-4,1.3-8.1,5.3-9.2c1.3-0.4,2.6-0.3,3.9,0c2.5,0.7,4.6,2.6,5.3,5.3C218.6,66.1,216.2,70.2,212.2,71.3z"/>
	<path class="st1" d="M213,63.1c-0.3-0.2-0.6-0.3-0.9-0.3c0.2-0.4,0.2-0.9,0.1-1.3c-0.1-0.5-0.5-1-1-1.3c-0.2-0.1-0.4-0.2-0.5-0.2
		c0,0,0-0.1,0-0.1l-0.3-1.2c-0.1-0.3-0.3-0.4-0.6-0.3c-0.3,0.1-0.4,0.3-0.3,0.6l0.3,1c0,0,0,0,0,0l-1,0.3l-0.3-1
		c-0.1-0.3-0.3-0.4-0.6-0.3c-0.3,0.1-0.4,0.3-0.3,0.6l0.3,1l-0.5,0.1c-0.3,0.1-0.4,0.3-0.3,0.6l1.7,6.4c0,0.2,0.2,0.3,0.3,0.3
		c0.1,0,0.2,0,0.2,0l0.7-0.2c-0.1,0.1-0.1,0.3-0.1,0.4l0.3,1.2c0,0.2,0.2,0.3,0.3,0.3c0.1,0,0.2,0,0.2,0c0.3-0.1,0.4-0.3,0.3-0.6
		l-0.3-1.2c0-0.2-0.2-0.3-0.3-0.3l1.4-0.4c-0.1,0.1-0.1,0.3-0.1,0.4l0.3,1.2c0,0.2,0.2,0.3,0.3,0.3c0.1,0,0.2,0,0.2,0
		c0.3-0.1,0.4-0.3,0.3-0.6l-0.3-1.2c0-0.2-0.1-0.3-0.3-0.3l0,0c0.6-0.2,1.1-0.5,1.3-1c0.3-0.5,0.4-1.1,0.2-1.7
		C213.9,63.9,213.6,63.4,213,63.1z M208.6,63.6l-0.6-2.1L210,61c0.3-0.1,0.6,0,0.8,0.1c0.3,0.1,0.4,0.4,0.5,0.7
		c0.1,0.3,0,0.6-0.1,0.8c-0.1,0.2-0.4,0.4-0.7,0.5L208.6,63.6z M212.3,66.2l-2.7,0.7l-0.7-2.4l1.9-0.5c0,0,0,0,0,0l0.8-0.2
		c0.3-0.1,0.7,0,1,0.1c0.3,0.2,0.5,0.4,0.6,0.8C213.3,65.4,212.9,66.1,212.3,66.2z"/>
	<path class="st1" d="M158,84.8c-2.4-8.8-11.4-14-20.2-11.7c-4.3,1.1-7.8,3.9-10,7.7c-2.2,3.8-2.8,8.3-1.6,12.5
		c1.1,4.3,3.9,7.8,7.7,10c1.3,0.7,2.6,1.3,4,1.7c2.8,0.7,5.7,0.7,8.5,0C155.1,102.6,160.3,93.5,158,84.8z M134.3,102.5
		c-3.6-2.1-6.2-5.4-7.2-9.4c-1.1-4-0.5-8.2,1.6-11.8c2.1-3.6,5.4-6.2,9.4-7.2c2.7-0.7,5.5-0.7,8,0c5.2,1.4,9.5,5.4,11,11
		c2.2,8.3-2.7,16.8-11,19C142,105.1,137.9,104.5,134.3,102.5z"/>
	<path class="st1" d="M152.1,87.9l-2.3,0.6c-0.1,0-0.1,0-0.2,0.1c0-0.2,0-0.4-0.1-0.6l-0.6-2.4c0,0,0.1,0,0.1,0l2.3-0.6
		c0.3-0.1,0.4-0.3,0.3-0.6c-0.1-0.3-0.3-0.4-0.6-0.3l-2.3,0.6c0,0-0.1,0-0.1,0.1l-0.4-1.5c-0.1-0.3-0.3-0.4-0.6-0.3l-12.8,3.4
		c-0.1,0-0.2,0.1-0.3,0.2s-0.1,0.2,0,0.4l0.4,1.5c0,0,0,0,0,0l-2.3,0.6c-0.3,0.1-0.4,0.3-0.3,0.6c0,0.2,0.2,0.3,0.3,0.3
		c0.1,0,0.2,0,0.2,0l2.3-0.6c0,0,0,0,0,0l0.8,2.9c0,0,0,0,0,0l-2.3,0.6c-0.3,0.1-0.4,0.3-0.3,0.6c0,0.2,0.2,0.3,0.3,0.3
		c0.1,0,0.2,0,0.2,0l2.3-0.6c0,0,0,0,0,0l0,0.1c0.3,1,0.9,1.9,1.8,2.4c0.3,0.2,0.6,0.3,1,0.4c0.7,0.2,1.4,0.2,2,0
		c1.9-0.5,3.1-2.3,2.9-4.1c0.8,0.6,1.9,0.8,3,0.5c1.5-0.4,2.5-1.7,2.7-3.1c0.1,0,0.1,0.1,0.2,0.1c0.1,0,0.2,0,0.2,0l2.3-0.6
		c0.3-0.1,0.4-0.3,0.3-0.6C152.6,88,152.3,87.8,152.1,87.9z M142.6,93.8c-0.4,0.7-1,1.2-1.8,1.4c-0.8,0.2-1.6,0.1-2.3-0.3
		c-0.7-0.4-1.2-1-1.4-1.8l-1.6-5.9l5.9-1.6c0,0.1,0,0.2,0,0.3l1.1,4c0,0,0,0,0,0l0.4,1.6C143.1,92.3,143,93.1,142.6,93.8z
		 M148.3,90.3c-0.4,0.6-0.9,1.1-1.6,1.2c-1.4,0.4-2.9-0.5-3.3-1.9l-1.1-4.1c0-0.1-0.1-0.2-0.2-0.2l5.3-1.4l1.2,4.3
		C148.8,88.9,148.7,89.7,148.3,90.3z"/>
	<path class="st1" d="M247.2,73.7c-2.3,4.1-0.9,9.2,3.1,11.6c0.3,0.2,0.5,0.3,0.8,0.4v-1.1c-0.1-0.1-0.2-0.1-0.3-0.2
		c-3.6-2.1-4.8-6.7-2.8-10.3c0.7-1.3,1.8-2.3,3.1-2.9v-1.1C249.5,70.9,248.1,72.1,247.2,73.7z"/>
	<path class="st1" d="M250.1,77.5c-0.1,0.1-0.2,0.2-0.3,0.4c-0.2,1.4,0.4,2.7,1.3,3.7V80c-0.2-0.4-0.3-0.7-0.4-1.1l0.4,0.2v-1.1
		l-0.6-0.3C250.4,77.5,250.2,77.5,250.1,77.5z"/>
	<path class="st1" d="M188,129.6c1.3,0.7,2.6,1.3,4,1.7c2.8,0.7,5.7,0.7,8.5,0c8.8-2.4,14-11.4,11.7-20.2
		c-2.4-8.8-11.4-14-20.2-11.7c-4.3,1.1-7.8,3.9-10,7.7c-2.2,3.8-2.8,8.3-1.6,12.5C181.5,123.8,184.2,127.4,188,129.6z M182.8,107.5
		c2.1-3.6,5.4-6.2,9.4-7.2c2.7-0.7,5.5-0.7,8,0c5.2,1.4,9.5,5.4,11,11c2.2,8.3-2.7,16.8-11,19c-4,1.1-8.2,0.5-11.8-1.6
		c-3.6-2.1-6.2-5.4-7.2-9.4C180.2,115.3,180.8,111.1,182.8,107.5z"/>
	<path class="st1" d="M196.9,111.4c0.2,0.1,0.5,0.2,0.7,0.3c0.5,0.1,1,0.1,1.5,0c1.5-0.4,2.4-2,2-3.5c-0.4-1.5-2-2.4-3.5-2
		c-1.5,0.4-2.4,2-2,3.5C195.7,110.4,196.2,111.1,196.9,111.4z M197.8,107.1c0.3-0.1,0.7-0.1,1,0c0.6,0.2,1.2,0.7,1.4,1.4
		c0.1,0.5,0.1,1-0.2,1.4c-0.3,0.4-0.7,0.8-1.2,0.9c-0.5,0.1-1,0.1-1.4-0.2c-0.4-0.3-0.8-0.7-0.9-1.2l0,0
		C196.2,108.4,196.8,107.4,197.8,107.1z"/>
	<path class="st1" d="M192.9,123.7c0.3,0.1,0.6,0.1,0.9,0.2c0.2,0,0.3,0,0.4-0.2c0.1-0.1,0.1-0.3,0.1-0.4l-3.8-14.1
		c0-0.2-0.2-0.3-0.3-0.3c-0.2-0.1-0.3,0-0.5,0.1c-2.6,2.1-3.8,5.6-2.9,8.8C187.8,120.7,190.1,123,192.9,123.7z M189.9,110.2
		l3.4,12.6c-2.6-0.6-4.7-2.7-5.4-5.3C187.2,114.9,188,112.1,189.9,110.2z"/>
	<path class="st1" d="M200.5,117c-1.5,0.4-2.4,2-2,3.5c0.3,1,1.1,1.8,2,2c0.5,0.1,1,0.1,1.5,0c1.5-0.4,2.4-2,2-3.5
		C203.6,117.5,202,116.5,200.5,117z M201.7,117.9c0.6,0.2,1.2,0.7,1.4,1.4c0.3,1-0.3,2.1-1.3,2.3c-1,0.3-2.1-0.3-2.3-1.3
		c-0.1-0.5-0.1-1,0.2-1.4c0.3-0.4,0.7-0.8,1.2-0.9C201,117.8,201.4,117.8,201.7,117.9z"/>
	<path class="st1" d="M197.9,89.1l-2-7.3c0,0,0,0,0,0l-5.3-19.7c-0.4-1.3-1.7-2.1-3-1.8l-27,7.2c-1.3,0.4-2.1,1.7-1.8,3l6.1,22.8
		c0,0,0,0,0,0l1.1,4.2c0.2,0.6,0.6,1.2,1.2,1.5c0.2,0.1,0.4,0.2,0.6,0.2c0.4,0.1,0.9,0.1,1.3,0l27-7.2
		C197.4,91.8,198.2,90.4,197.9,89.1z M159.7,70.4c-0.2-0.8,0.3-1.6,1.1-1.9l27-7.2c0.3-0.1,0.5-0.1,0.8,0c0.5,0.1,0.9,0.5,1.1,1.1
		l5,18.6l-10.7-6.2c-0.1-0.1-0.3-0.1-0.4,0c-0.1,0-0.2,0.1-0.3,0.3l-6.2,12.9l-7-2.8c-0.2-0.1-0.5,0-0.6,0.2l-3.9,6.8L159.7,70.4z
		 M168.8,98.5c-0.4,0.1-0.8,0.1-1.2-0.2c-0.4-0.2-0.6-0.5-0.7-0.9l-1.1-4.1l4.2-7.3l7,2.8c0.2,0.1,0.5,0,0.6-0.2l6.1-12.8l11.1,6.4
		l1.9,7.1c0.2,0.8-0.3,1.6-1.1,1.9L168.8,98.5z"/>
	<path class="st1" d="M171.4,78.9c1-0.3,1.7-0.9,2.2-1.7c0.5-0.9,0.6-1.8,0.4-2.8c-0.5-2-2.5-3.1-4.5-2.6c-1,0.3-1.7,0.9-2.2,1.7
		c-0.5,0.9-0.6,1.8-0.4,2.8c0.3,1,0.9,1.7,1.7,2.2c0.3,0.2,0.6,0.3,0.9,0.4C170.2,79.1,170.8,79.1,171.4,78.9z M167.9,76
		c-0.2-0.7-0.1-1.4,0.3-2.1c0.4-0.6,0.9-1.1,1.6-1.3c0.5-0.1,1-0.1,1.4,0c0.9,0.2,1.7,1,1.9,1.9c0.2,0.7,0.1,1.4-0.3,2.1
		c-0.4,0.6-0.9,1.1-1.6,1.3c-0.7,0.2-1.4,0.1-2.1-0.3C168.5,77.3,168,76.7,167.9,76z"/>
	<path class="st1" d="M227.9,124.8c3,1.7,6.4,2.7,9.8,2.7l5.3,5.1c0.4,0.4,0.8,0.6,1.2,0.7c0.3,0.1,0.7,0.1,1,0
		c0.7-0.2,1.3-0.8,1.6-1.8l2-7.1c0.8-0.5,1.6-1,2.3-1.6v-1.3c-0.9,0.8-1.9,1.5-3,2.2c-0.1,0.1-0.2,0.2-0.2,0.3l-2.1,7.2
		c-0.2,0.6-0.5,1-0.9,1.1c-0.4,0.1-0.9-0.1-1.3-0.5l-5.4-5.2c-0.1-0.1-0.1-0.1-0.2-0.1c0,0-0.1,0-0.1,0c-3.3,0-6.6-0.9-9.5-2.6
		c-9.3-5.4-12.5-17.3-7.1-26.7c2.6-4.5,6.8-7.7,11.9-9.1c5-1.3,10.3-0.7,14.8,1.9c1.1,0.7,2.2,1.4,3.2,2.3v-1.2
		c-0.8-0.7-1.7-1.3-2.7-1.9c-9.8-5.6-22.3-2.3-28,7.5C214.8,106.6,218.2,119.1,227.9,124.8z"/>
	<path class="st1" d="M247.9,108.5c0.2,0.1,0.4,0,0.5-0.2c0.1-0.2,0.1-0.5-0.2-0.7l-15.6-9c-0.2-0.1-0.5-0.1-0.7,0.2
		c-0.1,0.2-0.1,0.5,0.2,0.7l15.6,9C247.8,108.5,247.8,108.5,247.9,108.5z"/>
	<path class="st1" d="M228.6,105.6c-0.2-0.1-0.5-0.1-0.7,0.2c-0.1,0.2-0.1,0.5,0.2,0.7l10.4,6c0,0,0.1,0,0.1,0
		c0.2,0.1,0.4,0,0.5-0.2c0.1-0.2,0.1-0.5-0.2-0.7L228.6,105.6z"/>
	<path class="st1" d="M192.1,1.1c-1.5,0.9-2.7,2.2-3.6,3.7c-1.4,2.4-1.8,5.2-1,8c0.7,2.7,2.5,5,4.9,6.4c0.8,0.5,1.7,0.8,2.5,1.1
		c1.8,0.5,3.6,0.5,5.4,0c2.7-0.7,5-2.5,6.4-4.9c1.4-2.4,1.8-5.2,1-8c-0.7-2.7-2.5-5-4.9-6.4c-0.7-0.4-1.4-0.7-2.1-0.9H197l0.3,0.3
		c0.1,0.1,0.2,0.1,0.3,0.1c1.6,0,3.2,0.5,4.6,1.3c2.2,1.3,3.8,3.3,4.4,5.8c0.7,2.5,0.3,5-1,7.2c-1.3,2.2-3.3,3.8-5.8,4.4
		c-2.5,0.7-5,0.3-7.2-1c-2.2-1.3-3.8-3.3-4.4-5.8c-0.7-2.5-0.3-5,1-7.2c0.8-1.4,2-2.6,3.4-3.4c0.1-0.1,0.2-0.2,0.2-0.3l0.4-1.5h-1
		L192.1,1.1z"/>
	<path class="st1" d="M192.9,9c-0.2-0.1-0.5-0.1-0.7,0.2c-0.1,0.2-0.1,0.5,0.2,0.7l7.8,4.5c0,0,0.1,0,0.1,0c0.2,0.1,0.4,0,0.5-0.2
		c0.1-0.2,0.1-0.5-0.2-0.7L192.9,9z"/>
	<path class="st1" d="M202.4,11c0.2,0.1,0.4,0,0.5-0.2c0.1-0.2,0.1-0.5-0.2-0.7l-5.2-3c-0.2-0.1-0.5-0.1-0.7,0.2
		c-0.1,0.2-0.1,0.5,0.2,0.7l5.2,3C202.3,10.9,202.3,11,202.4,11z"/>
	<path class="st1" d="M166.3,46.3c0,0.2,0.2,0.3,0.3,0.3l28.6,8.4c0,0,0,0,0,0c0.2,0,0.3,0,0.5-0.1l12.2-11.3l6.4-1.1
		c2-0.5,3.2-2.6,2.6-4.6l-2.7-10c-0.3-1-0.9-1.8-1.7-2.3c-0.9-0.5-1.9-0.6-2.8-0.4c0,0,0,0,0,0l-6,2.2l-16.2-3.6
		c-0.2,0-0.3,0-0.5,0.1l-20.6,21.6C166.3,46,166.3,46.1,166.3,46.3z M210,26.4c0.7-0.2,1.4-0.1,2.1,0.3c0.6,0.4,1.1,1,1.3,1.7
		l2.7,10c0.4,1.5-0.5,3-1.9,3.4l-6,1l-3.8-14.2L210,26.4z M187.5,25.1l15.8,3.5l3.9,14.5l-11.9,11l-26.7-7.9l18.6-5
		c0.4,0.9,1,1.7,1.9,2.3c0.3,0.2,0.7,0.3,1.1,0.4c1.9,0.5,4-0.3,5-2.1c1.2-2.1,0.5-4.9-1.6-6.1c-2.1-1.2-4.9-0.5-6.1,1.6
		c-0.5,0.9-0.7,1.9-0.5,2.9l-18.6,5L187.5,25.1z M188.3,37.8c0.8-1.4,2.5-2,4-1.6c0.3,0.1,0.6,0.2,0.8,0.4c1.7,1,2.3,3.1,1.3,4.8
		c-1,1.7-3.1,2.3-4.8,1.3c-0.8-0.5-1.4-1.2-1.6-2.1c0,0,0,0,0-0.1c0,0,0,0,0,0C187.7,39.6,187.8,38.6,188.3,37.8z"/>
	<path class="st1" d="M250.2,65.2l-8.4-15.9c0-0.1-0.1-0.1-0.2-0.2l-3-1.8L245,36l3,1.8c0.1,0,0.2,0.1,0.3,0.1l2.8-0.1v-1l-2.7,0.1
		l-14.6-8.4c-3.6-2.1-8.2-0.8-10.2,2.7c-2.1,3.6-0.8,8.2,2.7,10.2l2.2,1.3l-5.3,9.1c-1.5,2.6-0.6,6,2,7.5l1.7,1
		c0.3,0.2,0.6,0.3,0.8,0.3c0.6,0.2,1.2,0.2,1.8,0c0.9-0.2,1.7-0.8,2.1-1.6l6.3-10.8l2.9,1.7l8.8,16.5c0.1,0.1,0.2,0.2,0.3,0.2
		c0,0,0.1,0,0.1,0c0.2,0,0.3-0.1,0.4-0.2l0.5-0.9v-1.9L250.2,65.2z M230.9,58.5c-0.3,0.6-0.9,1-1.5,1.2c-0.6,0.2-1.3,0.1-1.9-0.2
		l-1.7-1c-2.2-1.2-2.9-4-1.7-6.2l5.3-9.1l2.6,1.5l5.2,3L230.9,58.5z M237.7,46.8l-10.8-6.3c-3.1-1.8-4.2-5.8-2.4-8.9
		c1.5-2.6,4.6-3.8,7.3-3c0.5,0.1,1.1,0.4,1.6,0.7l10.8,6.3L237.7,46.8z"/>
	<path class="st1" d="M214.5,140.6l1.3-0.4l8.9,2.7c0.2,0.1,0.4,0,0.5-0.1c0.1-0.1,0.2-0.3,0.1-0.5l-4.4-16.4c0-0.2-0.2-0.3-0.3-0.3
		c-0.2,0-0.4,0-0.5,0.1l-6.3,6.8l-1.8,0.5c0,0,0,0,0,0h0l-6.3,1.7c-2.1,0.6-3.4,2.8-2.8,4.9c0.3,1,0.9,1.9,1.9,2.4
		c0.3,0.2,0.6,0.3,1,0.4c0.7,0.2,1.4,0.2,2.1,0l1-0.3l0.7,2.4h1l-0.7-2.7l3.9-1l1,3.7h1L214.5,140.6z M211.6,140.4l-2.7,0.7l0,0
		l-1.4,0.4c-0.8,0.2-1.6,0.1-2.3-0.3c-0.7-0.4-1.2-1.1-1.4-1.8c0,0,0,0,0,0c-0.4-1.6,0.5-3.3,2.1-3.7l5.8-1.6l1.6,5.8L211.6,140.4z
		 M212.7,133.9l1.5-0.4c0.1,0,0.2-0.1,0.2-0.1l5.8-6.3l3.9,14.7l-8.2-2.5c-0.1,0-0.2,0-0.3,0l-1.5,0.4L212.7,133.9z"/>
	<path class="st1" d="M167.6,58.9l2-3.5c0.1-0.1,0.1-0.2,0-0.4c0-0.1-0.1-0.2-0.2-0.3l-3.5-2c-1.6-0.9-4.1-1.1-5.8-0.3l-4,1.7
		l-7.6-3.3c-0.2-0.1-0.4,0-0.5,0.1c-0.1,0.1-0.2,0.3-0.2,0.5l1.5,5.6l-0.3,0.1c-0.2,0.1-0.3,0.3-0.3,0.6l1.5,5.5
		c0,0.2,0.2,0.3,0.3,0.3c0.1,0,0.1,0,0.2,0l0.3,0l1.5,5.6c0,0.2,0.2,0.3,0.3,0.3c0,0,0,0,0,0c0.2,0,0.4,0,0.5-0.2l4.9-6.7l4.3-0.5
		C164.5,61.9,166.7,60.5,167.6,58.9z M149.1,52.1l5.8,2.6l-4.6,2L149.1,52.1z M153.3,67.9l-1.2-4.5l5-0.6L153.3,67.9z M151.1,62.5
		l-1.2-4.7l6.3-2.7c0.2,0,0.4,0,0.5-0.2l3.9-1.7c1.4-0.6,3.6-0.5,4.9,0.3l3,1.8l-1.8,3c-0.7,1.3-2.6,2.5-4.1,2.7L151.1,62.5z"/>
	<path class="st1" d="M169.6,135.7c0.2,0.2,0.4,0.4,0.6,0.5c0.1,0,0.3,0,0.4,0c0.4,0,0.8-0.3,0.9-0.7l2.5-5.7
		c0.9-1.9,0.6-4.2-0.6-5.9c0,0,0,0,0,0c-0.2-0.3-0.6-0.5-1-0.5c-0.4,0-0.8,0.3-0.9,0.7l0,0l-3.4,7.8c-0.3,0.6-0.2,1.3,0.2,1.9
		L169.6,135.7z M169,132.3l3.4-7.8l0,0c0-0.1,0.1-0.1,0.1-0.1c0,0,0,0,0.1,0c0,0,0.1,0,0.1,0.1c0,0,0,0,0,0c1,1.5,1.2,3.3,0.5,5
		l-2.5,5.7c0,0.1-0.1,0.1-0.1,0.1c0,0-0.1,0-0.1-0.1l-1.3-1.9C168.9,133,168.9,132.6,169,132.3z"/>
	<path class="st1" d="M166.2,130.4c0.2,0.2,0.4,0.4,0.6,0.5c0.1,0,0.3,0,0.4,0c0.4,0,0.8-0.3,0.9-0.7l4.3-9.8
		c0.9-1.9,0.7-4.2-0.6-5.9c-0.2-0.3-0.6-0.5-1-0.5c-0.4,0-0.8,0.3-0.9,0.7l-5.3,11.9c-0.3,0.6-0.2,1.4,0.2,1.9L166.2,130.4z
		 M165.6,127l5.3-11.9c0,0,0,0,0,0c0-0.1,0.1-0.1,0.1-0.1c0,0,0,0,0.1,0c0,0,0.1,0,0.1,0.1c1,1.5,1.2,3.4,0.5,5l-4.3,9.8
		c0,0.1-0.1,0.1-0.1,0.1c0,0-0.1,0-0.1-0.1l-1.3-1.9C165.5,127.7,165.5,127.3,165.6,127z"/>
	<path class="st1" d="M170.3,106.1c-0.3-0.4-0.8-0.7-1.3-0.6c-0.5,0-0.9,0.3-1.1,0.8l-6.7,15.2c-0.3,0.6-0.2,1.4,0.2,1.9l1.3,1.9
		c0.2,0.2,0.4,0.4,0.6,0.5c0.1,0,0.3,0,0.4,0c0.4,0,0.8-0.3,0.9-0.7l6.2-14C171.5,109.5,171.3,107.6,170.3,106.1z M169.9,110.8
		l-6.2,14c0,0.1-0.1,0.1-0.1,0.1c0,0-0.1,0-0.1-0.1l-1.3-1.9c-0.2-0.3-0.2-0.7-0.1-1l6.7-15.2c0.1-0.2,0.3-0.2,0.3-0.2
		c0.2,0,0.3,0.1,0.4,0.2C170.4,107.9,170.5,109.4,169.9,110.8z"/>
	<path class="st1" d="M251.1,137.7v-1l-18.8,7.3c-0.4,0.1-0.7,0.4-1,0.7h1.9L251.1,137.7z"/>
	<polygon class="st1" points="251.1,142.5 245.5,144.6 248.2,144.6 251.1,143.5 	"/>
	<path class="st1" d="M154.6,18.4c-0.7-0.3-1.5-0.2-2.1,0.2l-2.2,1.5c-0.4,0.3-0.6,0.7-0.5,1.1c0,0.4,0.3,0.8,0.7,1l16.2,7.1
		c0.3,0.1,0.6,0.2,0.9,0.3c1.7,0.4,3.5,0.1,4.9-0.9c0.5-0.3,0.7-0.8,0.7-1.4c-0.1-0.6-0.4-1-0.9-1.2l0,0L154.6,18.4z M171.9,28.1
		c-1.5,1-3.3,1.2-4.9,0.5l-16.2-7.1c-0.1-0.1-0.1-0.2-0.1-0.2c0,0,0-0.2,0.1-0.2l2.2-1.5c0.3-0.2,0.7-0.3,1-0.2c0.1,0,0.1,0,0.2,0.1
		l17.6,7.8h0c0.3,0.1,0.3,0.4,0.3,0.5C172.1,27.8,172,28,171.9,28.1z"/>
	<path class="st1" d="M212.1,4.2c0.5,0.1,1,0.1,1.5,0l1-0.3c1.1-0.3,1.7-1.4,1.4-2.4L215.6,0h-1l0.5,1.8c0.1,0.5-0.2,1.1-0.7,1.2
		l-1,0.3c-1.1,0.3-2.2-0.4-2.5-1.4L210.4,0h-1l0.6,2.1C210.3,3.2,211.1,3.9,212.1,4.2z"/>
	<path class="st1" d="M240.4,12.6l-11.7,4.6c-0.9,0.3-1.5,1.1-1.7,2l-0.6,3.3c-0.1,0.5,0.1,1,0.5,1.4c0.2,0.1,0.3,0.2,0.5,0.3
		c0.3,0.1,0.6,0.1,0.9-0.1l8.6-3.3c2.8-1.1,4.9-3.6,5.4-6.6c0,0,0,0,0,0c0.1-0.5-0.1-1-0.5-1.3C241.4,12.5,240.9,12.4,240.4,12.6z
		 M241.2,13.6c0.1,0.1,0.2,0.2,0.2,0.4c0,0,0,0,0,0c-0.5,2.7-2.3,4.9-4.8,5.8l-8.6,3.3c-0.2,0.1-0.4,0-0.4-0.1
		c-0.1-0.1-0.2-0.3-0.2-0.4l0.6-3.3c0.1-0.6,0.5-1.1,1.1-1.3l11.7-4.6C241,13.4,241.2,13.5,241.2,13.6z"/>
	<path class="st1" d="M250.4,2.8c0.1-0.5-0.1-1-0.5-1.4c-0.4-0.3-0.9-0.4-1.4-0.2l-17.9,6.9c-0.9,0.3-1.5,1.1-1.7,2l-0.6,3.3
		c-0.1,0.5,0.1,1,0.5,1.4c0.2,0.1,0.3,0.2,0.5,0.3c0.3,0.1,0.6,0.1,0.9,0L245,9.4C247.8,8.3,249.9,5.8,250.4,2.8z M229.9,14.1
		c-0.2,0.1-0.4,0-0.4-0.1c-0.1-0.1-0.2-0.3-0.2-0.4l0.6-3.3c0.1-0.6,0.5-1.1,1.1-1.3l17.9-6.9c0.1,0,0.2,0,0.3,0
		c0.1,0,0.1,0.1,0.2,0.1c0.1,0.1,0.2,0.2,0.2,0.4c-0.5,2.7-2.3,4.9-4.9,5.9L229.9,14.1z"/>
	<path class="st1" d="M232.5,0h-1.4c-0.2,0.3-0.4,0.6-0.4,1L230,4.4c-0.1,0.5,0.1,1,0.5,1.4c0.2,0.1,0.3,0.2,0.5,0.3
		c0.3,0.1,0.6,0.1,0.9,0l15.4-6h-2.7l-13.1,5.1c-0.2,0.1-0.4,0-0.4-0.1c-0.1-0.1-0.2-0.3-0.2-0.4l0.6-3.3C231.7,0.7,232,0.2,232.5,0
		z"/>
	<path class="st1" d="M92.1,140.7c1.1-2,1.4-4.2,0.8-6.4c-0.6-2.2-2-4-4-5.2c-2-1.1-4.2-1.4-6.4-0.8c-4.5,1.2-7.2,5.9-6,10.4
		c0.8,3,3.1,5.2,5.9,6H87C89.2,144,91,142.6,92.1,140.7z M77.5,138.4c-1.1-4,1.3-8.1,5.3-9.2c1.3-0.3,2.6-0.3,3.9,0
		c0.6,0.2,1.2,0.4,1.8,0.8c1.7,1,3,2.6,3.5,4.6c0.5,1.9,0.3,4-0.8,5.7c-1,1.7-2.6,3-4.6,3.5c0,0,0,0,0,0
		C82.7,144.8,78.6,142.4,77.5,138.4z"/>
	<path class="st1" d="M86.9,141.7c0.1,0,0.2,0,0.2,0c0.3-0.1,0.4-0.3,0.3-0.6l-0.3-1.2c0-0.1-0.2-0.3-0.3-0.3l0,0
		c1.2-0.3,1.9-1.5,1.6-2.7c-0.2-0.9-1-1.5-1.9-1.6c0.2-0.4,0.2-0.9,0.1-1.3c-0.1-0.5-0.5-1-1-1.3c-0.2-0.1-0.4-0.2-0.5-0.2
		c0,0,0-0.1,0-0.1l-0.3-1.2c-0.1-0.3-0.3-0.4-0.6-0.3c-0.3,0.1-0.4,0.3-0.3,0.6l0.3,1c0,0,0,0,0,0l-1,0.3l-0.3-1
		c-0.1-0.3-0.3-0.4-0.6-0.3c-0.3,0.1-0.4,0.3-0.3,0.6l0.3,1l-0.5,0.1c-0.1,0-0.2,0.1-0.3,0.2c-0.1,0.1-0.1,0.2,0,0.4l1.7,6.4
		c0,0.2,0.2,0.3,0.3,0.3c0.1,0,0.2,0,0.2,0l0.7-0.2c-0.1,0.1-0.1,0.3-0.1,0.4l0.3,1.2c0,0.2,0.2,0.3,0.3,0.3c0.1,0,0.2,0,0.2,0
		c0.3-0.1,0.4-0.3,0.3-0.6l-0.3-1.2c0-0.1-0.1-0.3-0.3-0.3l1.4-0.4c-0.1,0.1-0.1,0.3-0.1,0.4l0.3,1.2
		C86.6,141.5,86.8,141.7,86.9,141.7z M83.1,136.1l-0.6-2.1l1.9-0.5c0.3-0.1,0.6,0,0.8,0.1c0.3,0.1,0.4,0.4,0.5,0.7
		c0.1,0.3,0,0.6-0.1,0.8c-0.1,0.2-0.4,0.4-0.7,0.5L83.1,136.1z M84,139.4l-0.7-2.4l1.9-0.5c0,0,0,0,0,0l0.8-0.2
		c0.7-0.2,1.4,0.2,1.5,0.9c0.2,0.7-0.2,1.4-0.9,1.5L84,139.4z"/>
	<path class="st1" d="M68.5,69c-0.4,0.1-0.8,0.5-0.9,1l-1,3.4c-1.5,0.9-2.7,2.2-3.6,3.7c-1.4,2.4-1.8,5.2-1,8c0.7,2.7,2.5,5,4.9,6.4
		c0.8,0.5,1.7,0.8,2.5,1.1c1.8,0.5,3.6,0.5,5.4,0c2.7-0.7,5-2.5,6.4-4.9c1.4-2.4,1.8-5.2,1-8c-0.7-2.7-2.5-5-4.9-6.4
		c-1.5-0.9-3.2-1.3-4.9-1.4l-2.6-2.5C69.4,69.1,68.9,68.9,68.5,69z M72.2,72.9c1.6,0,3.2,0.5,4.6,1.3c2.2,1.3,3.8,3.3,4.4,5.8
		c0.7,2.5,0.3,5-1,7.2C79,89.4,77,91,74.5,91.6c-2.5,0.7-5,0.3-7.2-1c-2.2-1.3-3.8-3.3-4.4-5.8c-0.7-2.5-0.3-5,1-7.2
		c0.8-1.4,2-2.6,3.4-3.4c0.1-0.1,0.2-0.2,0.2-0.3l1-3.6c0.1-0.2,0.2-0.3,0.3-0.4c0,0,0.1,0,0.1,0c0.1,0,0.2,0.1,0.3,0.2l2.7,2.6
		C71.9,72.9,72,72.9,72.2,72.9z"/>
	<path class="st1" d="M75.2,86l-7.8-4.5c-0.2-0.1-0.5-0.1-0.7,0.2c-0.1,0.2-0.1,0.5,0.2,0.7l7.8,4.5c0,0,0.1,0,0.1,0
		c0.2,0.1,0.4,0,0.5-0.2C75.5,86.4,75.4,86.1,75.2,86z"/>
	<path class="st1" d="M71.5,80.4l5.2,3c0,0,0.1,0,0.1,0c0.2,0.1,0.4,0,0.5-0.2c0.1-0.2,0.1-0.5-0.2-0.7l-5.2-3
		c-0.2-0.1-0.5-0.1-0.7,0.2C71.2,79.9,71.3,80.2,71.5,80.4z"/>
	<path class="st1" d="M69.7,127.5c0.2,0,0.3,0,0.5-0.1l12.2-11.3l6.4-1.1c2-0.5,3.2-2.6,2.6-4.6l-2.7-10c-0.3-1-0.9-1.8-1.7-2.3
		c-0.9-0.5-1.9-0.6-2.8-0.4c0,0,0,0,0,0l-6,2.2l-16.2-3.6c-0.2,0-0.3,0-0.5,0.1l-20.6,21.6c-0.1,0.1-0.2,0.3-0.1,0.5
		c0,0.2,0.2,0.3,0.3,0.3L69.7,127.5C69.7,127.5,69.7,127.5,69.7,127.5z M84.4,98.9c0.7-0.2,1.4-0.1,2.1,0.3c0.6,0.4,1.1,1,1.3,1.7
		l2.7,10c0.4,1.5-0.5,3-1.9,3.4l-6,1L78.7,101L84.4,98.9z M63.6,115.9c0.3,0.2,0.7,0.4,1.1,0.5c0.8,0.2,1.5,0.2,2.3,0
		c1.2-0.3,2.1-1.1,2.7-2.1c0.6-1,0.8-2.2,0.4-3.4s-1.1-2.1-2.1-2.7c-2.1-1.2-4.9-0.5-6.1,1.6c-0.5,0.9-0.7,1.9-0.5,2.9l-18.6,5
		L62,97.5l15.8,3.5l3.9,14.5l-11.9,11L43,118.6l18.6-5C62,114.6,62.7,115.4,63.6,115.9z M62.8,110.3c0.8-1.4,2.5-2,4-1.6
		c0.3,0.1,0.6,0.2,0.8,0.4c0.8,0.5,1.4,1.2,1.6,2.1c0.2,0.9,0.1,1.9-0.4,2.7c-0.5,0.8-1.2,1.4-2.1,1.6c-0.9,0.2-1.9,0.1-2.7-0.4
		c-0.8-0.5-1.4-1.2-1.6-2.1c0,0,0,0,0-0.1c0,0,0,0,0,0C62.2,112,62.3,111.1,62.8,110.3z"/>
	<path class="st1" d="M29.2,62.3C29.2,62.3,29.2,62.3,29.2,62.3l3.5-4.7c0.8-1.1,1.1-2.5,0.7-3.8l-1-3.6c-0.6-2.4-3.1-3.8-5.5-3.2
		l-12.4,3.3c-1.2,0.3-2.1,1.1-2.7,2.1c-0.6,1-0.8,2.2-0.4,3.4l1,3.6c0.4,1.3,1.3,2.4,2.5,2.9l5.3,2.3c0.8,0.3,1.1,1.2,0.8,2
		c0,0.1-0.1,0.2-0.2,0.3l-3.5,4.7c-0.8,1.1-1.1,2.5-0.7,3.8l1,3.6c0.4,1.6,1.7,2.8,3.2,3.2c0.7,0.2,1.5,0.2,2.3,0l12.4-3.3
		c2.4-0.6,3.8-3.1,3.2-5.5l-1-3.6c-0.4-1.3-1.3-2.4-2.5-2.9l-5.3-2.3c-0.4-0.2-0.7-0.5-0.8-0.8c-0.1-0.4-0.1-0.8,0-1.2
		C29.1,62.5,29.1,62.4,29.2,62.3z M28.1,64.1c0.2,0.6,0.7,1.1,1.3,1.4l5.3,2.3c1,0.4,1.7,1.3,2,2.3l1,3.6c0.5,1.9-0.6,3.8-2.5,4.3
		l-12.4,3.3c-1.9,0.5-3.8-0.6-4.3-2.5l-1-3.6c-0.3-1-0.1-2.1,0.6-3l3.5-4.7c0.1-0.1,0.2-0.3,0.3-0.5c0.5-1.3,0-2.7-1.3-3.3l-5.3-2.3
		c-1-0.4-1.7-1.3-2-2.3l-1-3.6c-0.2-0.9-0.1-1.9,0.4-2.7s1.2-1.4,2.1-1.6L27.2,48c0.6-0.2,1.2-0.2,1.8,0c1.2,0.3,2.2,1.2,2.5,2.5
		l1,3.6c0.3,1,0.1,2.1-0.6,3l-3.5,4.7c-0.1,0.1-0.2,0.3-0.3,0.5C27.9,62.8,27.9,63.5,28.1,64.1z"/>
	<path class="st1" d="M25.6,71.1l-3.7,3.3c-0.7,0.6-1,1.6-0.8,2.5l0.1,0.4c0.2,0.7,0.8,1.3,1.5,1.5c0.3,0.1,0.7,0.1,1.1,0l9.3-2.5
		c0.5-0.1,1-0.5,1.3-1c0.3-0.5,0.4-1,0.2-1.6l-0.1-0.4c-0.2-0.9-1-1.6-1.9-1.8l-4.8-1C27,70.4,26.2,70.6,25.6,71.1z M32.5,72.5
		c0.5,0.1,0.9,0.5,1.1,1.1l0.1,0.4c0.2,0.6-0.2,1.2-0.8,1.4l-9.3,2.5c-0.6,0.2-1.2-0.2-1.4-0.8l-0.1-0.4c-0.1-0.6,0-1.1,0.5-1.5
		l3.7-3.3c0.4-0.3,0.8-0.4,1.3-0.4L32.5,72.5C32.4,72.5,32.4,72.5,32.5,72.5z"/>
	<path class="st1" d="M23.3,62.7c0.4,0.1,0.8,0.1,1.2,0c0.6-0.2,1.1-0.6,1.5-1.2l1.4-2.7c0.5-0.9,0.2-1.4,0-1.6
		c-0.2-0.2-0.6-0.6-1.6-0.3l-5.4,1.5c-1,0.3-1.2,0.8-1.2,1.1c0,0.3,0,0.9,0.9,1.4l2.6,1.6C22.9,62.6,23.1,62.7,23.3,62.7z
		 M20.2,59.5c0,0,0.1-0.2,0.5-0.3l5.4-1.5c0.4-0.1,0.6,0,0.6,0c0,0,0.1,0.2-0.1,0.6l-1.4,2.7c-0.2,0.4-0.5,0.6-0.9,0.7
		c-0.4,0.1-0.8,0-1.1-0.2L20.6,60C20.2,59.8,20.2,59.6,20.2,59.5z"/>
	<path class="st1" d="M10.8,82.1c2.3-4.1,0.9-9.2-3.1-11.6c-2.4-1.4-5.3-1.5-7.7-0.4v1.1c0.5-0.2,1-0.4,1.5-0.6
		c1.9-0.5,4-0.3,5.7,0.8c3.6,2.1,4.8,6.7,2.8,10.3c-2,3.5-6.4,4.7-9.9,2.9v1.1c0.4,0.2,0.8,0.3,1.2,0.4C4.9,87,8.8,85.5,10.8,82.1z"
		/>
	<path class="st1" d="M1.1,76.4c0.1,0.1,0.3,0.1,0.4,0.2c0.3,0.1,0.6,0.1,0.9,0c0.4-0.1,0.8-0.4,1-0.8c0.5-0.8,0.2-1.8-0.6-2.3
		c-0.8-0.5-1.8-0.2-2.3,0.6C0,74.9,0.3,75.9,1.1,76.4C1.1,76.4,1.1,76.4,1.1,76.4z M1.3,74.5c0.1-0.2,0.2-0.3,0.4-0.3
		c0.2-0.1,0.4,0,0.5,0.1c0.3,0.2,0.5,0.6,0.3,1c-0.1,0.2-0.2,0.3-0.4,0.3c-0.2,0-0.4,0-0.5-0.1C1.2,75.3,1.1,74.9,1.3,74.5z"/>
	<path class="st1" d="M0,79l4.5,2.6c-1,0.4-2.2,0.4-3.2-0.2C0.8,81,0.3,80.5,0,79.9v1.7c0.3,0.3,0.6,0.5,0.9,0.7
		c0.3,0.2,0.7,0.3,1.1,0.4C3.3,83,4.7,82.8,5.8,82C5.9,81.9,6,81.7,6,81.6c0-0.2-0.1-0.3-0.2-0.4L0,77.9V79z"/>
	<path class="st1" d="M5.9,79.1c0.1,0.1,0.3,0.1,0.4,0.2c0.3,0.1,0.6,0.1,0.9,0c0.4-0.1,0.8-0.4,1-0.8c0.5-0.8,0.2-1.8-0.6-2.3
		C7.2,76,6.7,76,6.3,76.1c-0.4,0.1-0.8,0.4-1,0.8c-0.2,0.4-0.3,0.8-0.2,1.3C5.2,78.6,5.5,78.9,5.9,79.1z M6.1,77.3
		c0.1-0.2,0.2-0.3,0.4-0.3c0.1,0,0.2,0,0.4,0C7,77,7,77,7.1,77.1c0.3,0.2,0.5,0.6,0.3,1c-0.1,0.2-0.2,0.3-0.4,0.3
		c-0.2,0-0.4,0-0.5-0.1c-0.2-0.1-0.3-0.2-0.3-0.4C6,77.7,6,77.5,6.1,77.3z"/>
	<path class="st1" d="M4.8,117.2c5.1-8.8,2.8-19.9-4.8-26.1v1.2c6.8,6,8.7,16.2,4,24.4c-1.1,1.8-2.4,3.5-4,4.9v1.3
		C1.9,121.3,3.6,119.4,4.8,117.2z"/>
	<path class="st1" d="M50.5,70.1c-0.3-1.1-1.5-1.8-2.6-1.5l-5,1.3c-1.1,0.3-1.8,1.5-1.5,2.6c0,0,0,0,0,0l1.1,2.9l-1.8,8
		c0,0.2,0,0.3,0.1,0.5l10.8,10.3c0.1,0.1,0.1,0.1,0.2,0.1c0.1,0,0.2,0,0.2,0c0.2,0,0.3-0.2,0.3-0.3l4.2-14.3c0-0.2,0-0.3-0.1-0.5
		L51,73.3L50.5,70.1z M42.4,72.3c-0.1-0.6,0.2-1.2,0.8-1.4l5-1.3c0.6-0.2,1.2,0.2,1.4,0.8l0.5,2.8l-6.7,1.8L42.4,72.3z M52,92.2
		l-2.2-8.3c0.4-0.2,0.8-0.6,1.1-1c0.7-1.2,0.3-2.7-0.9-3.4c-0.6-0.3-1.2-0.4-1.9-0.2c-0.6,0.2-1.2,0.6-1.5,1.2
		c-0.3,0.6-0.4,1.2-0.2,1.9c0.2,0.6,0.6,1.2,1.2,1.5c0.2,0.1,0.4,0.2,0.6,0.3c0.3,0.1,0.5,0.1,0.8,0.1l2.2,8.3l-9.4-8.9l1.7-7.6
		l6.9-1.9l5.3,5.7L52,92.2z M49.1,83.1C49.1,83.1,49.1,83.1,49.1,83.1C49.1,83.1,49.1,83.1,49.1,83.1c-0.4,0.1-0.8,0.1-1.2-0.1
		c-0.4-0.2-0.6-0.5-0.7-0.9c-0.1-0.4-0.1-0.8,0.2-1.2c0.4-0.6,1.1-0.9,1.7-0.7c0.1,0,0.2,0.1,0.4,0.2c0.7,0.4,1,1.3,0.6,2.1
		C49.8,82.8,49.5,83,49.1,83.1z"/>
	<path class="st1" d="M26.2,105.1C26.2,105.1,26.2,105.1,26.2,105.1c0.4-0.3,0.6-0.7,0.5-1.1c0-0.4-0.3-0.8-0.7-1L17,99
		c-0.7-0.3-1.5-0.2-2.1,0.2l-2.2,1.5c-0.4,0.3-0.6,0.7-0.5,1.1c0,0.4,0.3,0.8,0.7,1l6.6,2.9c0.3,0.1,0.7,0.3,1,0.4
		C22.4,106.6,24.5,106.3,26.2,105.1z M19.8,104.8l-6.6-2.9c-0.1-0.1-0.1-0.2-0.1-0.2c0,0,0-0.2,0.1-0.2l2.2-1.5
		c0.3-0.2,0.7-0.3,1-0.2c0.1,0,0.1,0,0.2,0.1l9.1,4l0,0c0.1,0.1,0.1,0.1,0.1,0.2c0,0,0,0.2-0.1,0.2c0,0,0,0,0,0
		C23.9,105.5,21.7,105.7,19.8,104.8z"/>
	<path class="st1" d="M23.1,95c-0.7-0.3-1.5-0.2-2.1,0.2l-2.2,1.5c-0.4,0.3-0.6,0.7-0.5,1.1c0,0.4,0.3,0.8,0.7,1l11.3,5
		c0.3,0.1,0.7,0.3,1,0.4c2,0.5,4,0.2,5.8-1c0.4-0.2,0.6-0.7,0.5-1.1c0-0.4-0.3-0.8-0.7-1l0,0L23.1,95z M36.5,102.4
		c-1.7,1.2-3.9,1.4-5.9,0.6l-11.3-5c-0.1-0.1-0.1-0.2-0.1-0.2c0,0,0-0.2,0.1-0.2l2.2-1.5c0.3-0.2,0.7-0.3,1-0.2c0.1,0,0.1,0,0.2,0.1
		l13.8,6.1l0,0c0.1,0.1,0.1,0.2,0.1,0.2C36.6,102.3,36.6,102.4,36.5,102.4z"/>
	<path class="st1" d="M41.9,102.2c1.7,0.4,3.5,0.1,4.9-0.9c0.5-0.3,0.7-0.8,0.7-1.4c-0.1-0.6-0.4-1-0.9-1.2l0,0l-17.6-7.8
		c-0.7-0.3-1.5-0.2-2.1,0.2l-2.2,1.5c-0.4,0.3-0.6,0.7-0.5,1.1c0,0.4,0.3,0.8,0.7,1l16.2,7.1C41.3,102,41.6,102.1,41.9,102.2z
		 M25.1,93.6c0,0,0-0.2,0.1-0.2l2.2-1.5c0.3-0.2,0.7-0.3,1-0.2c0.1,0,0.1,0,0.2,0.1l17.6,7.8c0,0,0,0,0,0c0.3,0.1,0.3,0.4,0.3,0.5
		c0,0.2-0.1,0.4-0.2,0.5c-1.5,1-3.3,1.2-4.9,0.5l-16.2-7.1C25.2,93.8,25.1,93.7,25.1,93.6z"/>
	<path class="st1" d="M142.4,60.5l-1,1.7c-0.1,0.2-0.1,0.5,0.2,0.7l1.7,1c0.2,0.1,0.4,0.2,0.6,0.3c0.4,0.1,0.9,0.1,1.3,0
		c0.6-0.2,1.2-0.6,1.5-1.2c0.7-1.2,0.3-2.7-0.9-3.4C144.6,58.9,143.1,59.3,142.4,60.5z M145.9,62.5c-0.2,0.4-0.5,0.6-0.9,0.7
		c-0.4,0.1-0.8,0.1-1.2-0.2l-1.3-0.8l0.8-1.3c0.4-0.7,1.3-1,2.1-0.6C146.1,60.9,146.3,61.8,145.9,62.5z"/>
	<path class="st1" d="M75.7,21.2l8.7,5c0.1,0.1,0.2,0.1,0.4,0.1c0.2,0.1,0.5,0.1,0.8,0c0.4-0.1,0.7-0.3,0.9-0.7l5.1-8.8
		c0,0,0,0,0-0.1c0,0,0,0,0-0.1c0-0.1,0-0.2,0-0.2l-1.8-6.6c0-0.1-0.1-0.2-0.1-0.2c0,0,0,0,0,0c0,0,0,0-0.1,0l-5.4-3.1
		c-0.3-0.2-0.7-0.3-1.1-0.1c-0.4,0.1-0.7,0.3-0.9,0.7l-7,12.1c-0.2,0.3-0.3,0.7-0.1,1.1C75.1,20.6,75.3,21,75.7,21.2z M90.3,15.5
		L90.3,15.5L87.6,14l1.6-2.7L90.3,15.5z M76,19.6l7-12.1c0.1-0.1,0.2-0.2,0.3-0.2c0.1,0,0.2,0,0.3,0c0,0,0.1,0,0.1,0.1l5,2.9
		l-2.2,3.7c-0.1,0.2-0.1,0.5,0.2,0.7l3.7,2.2l-4.9,8.4c-0.1,0.1-0.2,0.2-0.3,0.2c-0.1,0-0.3,0-0.4-0.1l-8.7-5
		c-0.1-0.1-0.2-0.2-0.2-0.3C75.9,19.9,75.9,19.7,76,19.6z"/>
	<path class="st1" d="M134.9,47.4C134.9,47.4,134.9,47.5,134.9,47.4c0,0.1-0.1,0.2,0,0.3l1.3,4.8c0,0.1,0.1,0.1,0.1,0.2
		c0,0,0,0,0.1,0c0,0,0,0,0.1,0.1l3.9,2.3c0.1,0.1,0.2,0.1,0.3,0.1c0.2,0.1,0.4,0.1,0.6,0c0.3-0.1,0.6-0.3,0.7-0.6l5.1-8.8
		c0.3-0.6,0.1-1.3-0.4-1.7l-6.3-3.6c-0.3-0.2-0.6-0.2-0.9-0.1c-0.3,0.1-0.6,0.3-0.7,0.6L134.9,47.4
		C134.9,47.4,134.9,47.4,134.9,47.4z M136.1,48.6l1.6,0.9l-0.9,1.6L136.1,48.6z M139.5,41.4c0-0.1,0.1-0.1,0.1-0.1c0,0,0.1,0,0.2,0
		l6.3,3.6c0.1,0.1,0.2,0.2,0.1,0.3l-5.1,8.8c0,0.1-0.1,0.1-0.1,0.1c0,0-0.1,0-0.2,0l-3.5-2l1.5-2.6c0.1-0.2,0.1-0.5-0.2-0.7
		l-2.6-1.5L139.5,41.4z"/>
	<path class="st1" d="M99.2,6.2c0.2,0.9,0.9,1.5,1.8,1.8c0.4,0.1,0.8,0.1,1.3,0l1.8-0.5c0.7-0.2,1.3-0.7,1.6-1.4l1.2-2.7
		c0.1-0.1,0.2-0.2,0.3-0.3c0.1-0.1,0.3,0,0.4,0c0,0,0.1,0,0.1,0.1l2.3,1.7c0.6,0.5,1.4,0.6,2.1,0.4l1.8-0.5c1.3-0.4,2.1-1.7,1.8-3
		L115.2,0h-1l0.5,2c0.2,0.8-0.3,1.6-1.1,1.9l-1.8,0.5c-0.4,0.1-0.9,0-1.3-0.2l-2.3-1.7c0,0,0,0,0,0c-0.1-0.1-0.2-0.1-0.3-0.2
		c-0.4-0.2-0.8-0.2-1.1,0c-0.4,0.1-0.7,0.4-0.8,0.8l-1.2,2.7c-0.2,0.4-0.5,0.7-1,0.9L102,7c-0.4,0.1-0.8,0.1-1.2-0.2
		c-0.4-0.2-0.6-0.5-0.7-0.9L98.6,0h-1L99.2,6.2z"/>
	<path class="st1" d="M102.8,1.7c0.1,0.1,0.2,0.3,0.1,0.4l-0.5,2.4c0,0.2-0.2,0.3-0.4,0.4l-0.2,0c-0.1,0-0.2,0-0.2,0
		c-0.1,0-0.1-0.1-0.1-0.2l-1.2-4.6c0,0,0-0.1,0-0.1h-1c0,0.1,0,0.2,0,0.3l1.2,4.6c0.1,0.5,0.5,0.8,0.9,0.9c0.2,0.1,0.4,0.1,0.7,0
		l0.2,0c0.5-0.1,1-0.6,1.1-1.1l0.5-2.4c0.1-0.5,0-0.9-0.3-1.3l-0.9-1h-1.3L102.8,1.7z"/>
	<path class="st1" d="M109.8,1.4l-1.3-0.7c-0.1-0.1-0.2-0.2-0.2-0.3c0-0.1,0-0.2,0.1-0.4l0.1-0.1h-1c-0.1,0.2-0.1,0.5,0,0.7
		c0.1,0.4,0.4,0.7,0.7,0.9l1.4,0.7c0.1,0.1,0.2,0.1,0.3,0.1c0.4,0.1,0.7,0,0.8-0.1c0.1-0.1,0.4-0.4,0.2-1L110.4,0h-1L109.8,1.4z"/>
	<path class="st1" d="M142.2,3l1,3.6c0.3,1.2,1.1,2.1,2.1,2.7c0.3,0.2,0.7,0.4,1.1,0.5c0.8,0.2,1.5,0.2,2.3,0L161,6.5
		c1.2-0.3,2.1-1.1,2.7-2.1c0.6-1,0.8-2.2,0.4-3.4l-0.3-1h-1l0.3,1.2c0.2,0.9,0.1,1.9-0.4,2.7c-0.5,0.8-1.2,1.4-2.1,1.6l-12.4,3.3
		c-0.9,0.2-1.9,0.1-2.7-0.4c-0.8-0.5-1.4-1.2-1.6-2.1l-1-3.6c-0.3-1-0.1-2,0.4-2.8h-1.1C142,0.9,141.9,2,142.2,3z"/>
	<path class="st1" d="M157.9,0c0.6,0.1,1,0.5,1.2,1.1l0.1,0.4c0.2,0.6-0.2,1.2-0.8,1.4l-9.3,2.5c-0.3,0.1-0.6,0-0.8-0.1
		c-0.3-0.1-0.4-0.4-0.5-0.7l-0.1-0.4c-0.1-0.6,0-1.1,0.5-1.5l3-2.7h-1.5l-2.2,1.9c-0.7,0.6-1,1.6-0.8,2.5l0.1,0.4
		c0.1,0.5,0.5,1,1,1.3c0.2,0.1,0.3,0.2,0.5,0.2c0.3,0.1,0.7,0.1,1.1,0l9.3-2.5c1.1-0.3,1.8-1.4,1.5-2.6L160,0.9
		c-0.1-0.3-0.3-0.6-0.5-0.9h-1.8L157.9,0z"/>
	<path class="st1" d="M6.9,17.4c0.1,0,0.2,0,0.2,0l2.3-0.6c0,0,0,0,0,0l0.8,2.9c0,0,0,0,0,0L8,20.4c-0.3,0.1-0.4,0.3-0.3,0.6
		c0,0.2,0.2,0.3,0.3,0.3c0.1,0,0.2,0,0.2,0l2.3-0.6c0,0,0,0,0,0l0,0.1c0.4,1.4,1.5,2.4,2.8,2.8c0.6,0.2,1.4,0.2,2,0
		c1.9-0.5,3.1-2.3,2.9-4.1c0.8,0.6,1.9,0.8,3,0.5c1.5-0.4,2.5-1.7,2.7-3.1c0.1,0,0.1,0.1,0.2,0.1c0.1,0,0.2,0,0.2,0l2.3-0.6
		c0.3-0.1,0.4-0.3,0.3-0.6c-0.1-0.3-0.3-0.4-0.6-0.3L24.2,16c-0.1,0-0.1,0-0.2,0.1c0-0.2,0-0.4-0.1-0.6l-0.6-2.4c0,0,0.1,0,0.1,0
		l2.3-0.6c0.3-0.1,0.4-0.3,0.3-0.6c-0.1-0.3-0.3-0.4-0.6-0.3l-2.3,0.6c0,0-0.1,0-0.1,0.1l-0.4-1.5c-0.1-0.3-0.3-0.4-0.6-0.3
		L9.2,13.8c-0.3,0.1-0.4,0.3-0.3,0.6l0.4,1.5c0,0,0,0,0,0l-2.3,0.6c-0.3,0.1-0.4,0.3-0.3,0.6C6.6,17.3,6.8,17.4,6.9,17.4z
		 M21.8,11.4l1.2,4.3c0.4,1.4-0.5,2.9-1.9,3.3c-1.4,0.4-2.9-0.5-3.3-1.9l-1.1-4.1l0,0c0-0.1-0.1-0.2-0.2-0.2L21.8,11.4z M15.8,13.1
		c0,0.1,0,0.2,0,0.3l1.1,4c0,0,0,0,0,0l0.4,1.6c0.4,1.6-0.5,3.2-2.1,3.7c-0.8,0.2-1.6,0.1-2.3-0.3c-0.7-0.4-1.2-1-1.4-1.8l-1.6-5.9
		L15.8,13.1z"/>
	<path class="st1" d="M123.8,0h-1.3c-0.3,0.4-0.6,0.8-0.8,1.2c-2.3,4.1-0.9,9.2,3.1,11.6c0.7,0.4,1.3,0.7,2,0.8c3.6,1,7.6-0.6,9.5-4
		c1.1-2,1.4-4.2,0.8-6.4c-0.3-1.2-0.9-2.3-1.7-3.2h-1.3c1,0.9,1.7,2.1,2.1,3.5c0.5,1.9,0.3,4-0.8,5.7c-2.1,3.6-6.7,4.8-10.3,2.8
		c-1.7-1-3-2.6-3.5-4.6c-0.5-1.9-0.3-4,0.8-5.7C122.8,1,123.3,0.5,123.8,0z"/>
	<path class="st1" d="M126.6,3.9c0.1,0.1,0.3,0.1,0.4,0.2c0.3,0.1,0.6,0.1,0.9,0c0.4-0.1,0.8-0.4,1-0.8c0.2-0.4,0.3-0.8,0.2-1.3
		c-0.1-0.4-0.4-0.8-0.8-1c-0.8-0.5-1.8-0.2-2.3,0.6c-0.2,0.4-0.3,0.8-0.2,1.3C125.9,3.3,126.2,3.7,126.6,3.9z M126.8,2.1
		c0.2-0.3,0.5-0.4,0.8-0.3c0.1,0,0.1,0,0.2,0.1c0.2,0.1,0.3,0.2,0.3,0.4c0,0.2,0,0.4-0.1,0.5c-0.1,0.2-0.2,0.3-0.4,0.3
		c-0.2,0-0.4,0-0.5-0.1c0,0,0,0,0,0c-0.2-0.1-0.3-0.2-0.3-0.4C126.7,2.5,126.7,2.3,126.8,2.1z"/>
	<path class="st1" d="M124.5,5c-0.1,0.1-0.2,0.2-0.3,0.4c-0.2,1.8,0.7,3.5,2.2,4.4c0.3,0.2,0.7,0.3,1.1,0.4c1.3,0.3,2.7,0.1,3.8-0.7
		c0.1-0.1,0.2-0.3,0.2-0.4s-0.1-0.3-0.2-0.4l-6.3-3.7C124.8,5,124.6,5,124.5,5z M130.1,9.1c-1,0.4-2.2,0.4-3.2-0.2
		c-1-0.6-1.6-1.6-1.7-2.6L130.1,9.1z"/>
	<path class="st1" d="M133.7,6.1c0.2-0.4,0.3-0.8,0.2-1.3c-0.1-0.4-0.4-0.8-0.8-1c-0.8-0.5-1.8-0.2-2.3,0.6
		c-0.5,0.8-0.2,1.8,0.6,2.3c0.1,0.1,0.3,0.1,0.4,0.2C132.6,7.1,133.3,6.8,133.7,6.1z M131.6,5.4c0-0.2,0-0.4,0.1-0.5
		c0.2-0.3,0.5-0.4,0.8-0.3c0.1,0,0.1,0,0.2,0.1c0.2,0.1,0.3,0.2,0.3,0.4c0,0.2,0,0.4-0.1,0.5c-0.2,0.3-0.6,0.5-1,0.3
		C131.8,5.8,131.6,5.6,131.6,5.4z"/>
	<path class="st1" d="M66.4,26.9c-8.8,2.4-14,11.4-11.7,20.2c1.1,4.3,3.9,7.8,7.7,10c1.3,0.7,2.6,1.3,4,1.7c2.8,0.7,5.7,0.7,8.5,0
		c4.3-1.1,7.8-3.9,10-7.7c2.2-3.8,2.8-8.3,1.6-12.5C84.3,29.8,75.2,24.5,66.4,26.9z M85.7,38.8c1.1,4,0.5,8.2-1.5,11.8
		c-2.1,3.6-5.4,6.2-9.4,7.2c-4,1.1-8.2,0.5-11.8-1.5c-3.6-2.1-6.2-5.4-7.2-9.4c-1.1-4-0.5-8.2,1.6-11.8c2.1-3.6,5.4-6.2,9.4-7.2
		c2.7-0.7,5.5-0.7,8,0C79.9,29.2,84.2,33.2,85.7,38.8z"/>
	<path class="st1" d="M70,37.2c0.3,1,1.1,1.8,2,2c0.5,0.1,1,0.1,1.5,0c1.5-0.4,2.4-2,2-3.5c-0.4-1.5-2-2.4-3.5-2
		C70.5,34.1,69.6,35.7,70,37.2z M72.2,34.6c0.3-0.1,0.7-0.1,1,0c0.6,0.2,1.2,0.7,1.4,1.3c0.3,1-0.3,2.1-1.4,2.3
		c-1,0.3-2.1-0.3-2.3-1.3C70.6,35.9,71.2,34.9,72.2,34.6z"/>
	<path class="st1" d="M65.1,36.7c0-0.2-0.2-0.3-0.3-0.3c-0.2-0.1-0.3,0-0.5,0.1c-2.6,2.1-3.8,5.6-2.9,8.8c0.8,2.9,3.1,5.2,6,6
		c0.3,0.1,0.6,0.1,0.9,0.2c0.2,0,0.3,0,0.4-0.2c0.1-0.1,0.1-0.3,0.1-0.4L65.1,36.7z M62.3,45c-0.7-2.6,0.1-5.4,2-7.3l3.4,12.6
		C65.1,49.7,63,47.7,62.3,45z"/>
	<path class="st1" d="M74.9,44.5c-1.5,0.4-2.4,2-2,3.5l0,0c0.3,1,1.1,1.8,2,2c0.5,0.1,1,0.1,1.5,0c0.7-0.2,1.4-0.7,1.7-1.3
		c0.4-0.7,0.5-1.4,0.3-2.2C78,45,76.4,44,74.9,44.5z M77.5,46.7c0.1,0.5,0.1,1-0.2,1.4c-0.3,0.4-0.7,0.8-1.2,0.9
		c-1,0.3-2.1-0.3-2.3-1.3c-0.3-1,0.3-2.1,1.4-2.3C76.1,45.1,77.2,45.7,77.5,46.7z"/>
	<path class="st1" d="M39.3,20.9C39.3,20.9,39.3,20.9,39.3,20.9l1.1,4.3c0.1,0.2,0.1,0.4,0.2,0.6c0,0,0.1,0.1,0.1,0.1
		c0.1,0.1,0.2,0.2,0.3,0.4c0,0,0.1,0.1,0.1,0.1c0.1,0.1,0.3,0.3,0.5,0.4c0,0,0,0,0,0c0,0,0.1,0,0.1,0c0.2,0.1,0.3,0.2,0.5,0.2
		c0.2,0.1,0.4,0.1,0.6,0.1c0,0,0,0,0,0c0.2,0,0.4,0,0.7-0.1l27-7.2c1.3-0.4,2.1-1.7,1.8-3L67.8,0h-1l2.3,8.4L58.3,2.2
		c-0.1-0.1-0.3-0.1-0.4,0c-0.1,0-0.2,0.1-0.3,0.3l-6.2,12.9l-7-2.8c-0.2-0.1-0.5,0-0.6,0.2l-3.9,6.8L34.7,0h-1L39.3,20.9z
		 M44.5,13.5l7,2.8c0.2,0.1,0.5,0,0.6-0.2l6.1-12.8l11.1,6.4l1.9,7.1c0,0.1,0,0.2,0,0.3c0,0,0,0,0,0.1c0,0.1,0,0.2,0,0.2
		c0,0,0,0,0,0c0,0.1,0,0.2-0.1,0.3c0,0,0,0,0,0c0,0.1-0.1,0.2-0.1,0.2c-0.1,0.2-0.2,0.3-0.4,0.4c0,0,0,0,0,0
		c-0.2,0.1-0.3,0.2-0.5,0.3l-27,7.2c-0.8,0.2-1.6-0.3-1.9-1.1l-1.1-4.1L44.5,13.5z"/>
	<path class="st1" d="M41.4,3.8c0.3,1,0.9,1.7,1.7,2.2c0.3,0.2,0.6,0.3,0.9,0.4c0.6,0.2,1.3,0.2,1.9,0c0.9-0.3,1.7-0.9,2.2-1.7
		c0.5-0.9,0.6-1.8,0.4-2.8c-0.2-0.8-0.6-1.4-1.2-1.9h-4.7C41.5,0.9,41,2.4,41.4,3.8z M45.6,0.2c0.2,0.1,0.4,0.2,0.7,0.3
		c0.6,0.4,1.1,0.9,1.3,1.6c0.2,0.7,0.1,1.4-0.3,2.1c-0.4,0.6-0.9,1.1-1.6,1.3c-0.7,0.2-1.4,0.1-2.1-0.3c-0.6-0.4-1.1-0.9-1.3-1.6
		c-0.4-1.4,0.5-2.9,1.9-3.3C44.7,0.1,45.2,0.1,45.6,0.2z"/>
	<path class="st1" d="M122.9,16.8c-9.8-5.6-22.3-2.3-28,7.5c-5.6,9.8-2.3,22.3,7.5,28c3,1.7,6.4,2.7,9.8,2.7l5.3,5.1
		c0.4,0.4,0.8,0.6,1.2,0.7c0.3,0.1,0.7,0.1,1,0c0.7-0.2,1.3-0.8,1.6-1.8l2-7.1c2.9-1.8,5.4-4.3,7.1-7.3
		C136,35,132.6,22.4,122.9,16.8z M129.5,44.3c-1.7,2.9-4.1,5.3-6.9,7c-0.1,0.1-0.2,0.2-0.2,0.3l-2.1,7.2c-0.2,0.6-0.5,1-0.9,1.1
		c-0.4,0.1-0.9-0.1-1.3-0.5l-5.4-5.2c-0.1-0.1-0.1-0.1-0.2-0.1c0,0-0.1,0-0.1,0c-3.3,0-6.6-0.9-9.5-2.6c-4.5-2.6-7.7-6.8-9.1-11.9
		c-1.3-5-0.7-10.3,1.9-14.8c5.4-9.3,17.3-12.5,26.7-7.1C131.7,23,134.9,35,129.5,44.3z"/>
	<path class="st1" d="M122.7,35.2l-15.6-9c-0.2-0.1-0.5-0.1-0.7,0.2s-0.1,0.5,0.2,0.7l15.6,9c0,0,0.1,0,0.1,0c0.2,0.1,0.4,0,0.5-0.2
		C123,35.6,122.9,35.3,122.7,35.2z"/>
	<path class="st1" d="M113.5,39.1l-10.4-6c-0.2-0.1-0.5-0.1-0.7,0.2c-0.1,0.2-0.1,0.5,0.2,0.7l10.4,6c0,0,0.1,0,0.1,0
		c0.2,0.1,0.4,0,0.5-0.2C113.8,39.5,113.7,39.2,113.5,39.1z"/>
	<path class="st1" d="M167,0.1C167,0.1,167,0.1,167,0.1l1.1,3l-1.8,8c0,0.2,0,0.3,0.1,0.5l10.8,10.3c0.1,0.1,0.1,0.1,0.2,0.1
		c0.1,0,0.2,0,0.3,0c0.2,0,0.3-0.2,0.3-0.3l4.2-14.3c0-0.2,0-0.3-0.1-0.5l-5.6-6.1L176.4,0h-1l0.1,0.7l-6.7,1.8L168,0L167,0.1
		C167,0,167,0.1,167,0.1z M169,3.4l6.9-1.9l5.3,5.7l-3.7,12.4l-2.2-8.3c0.4-0.2,0.8-0.6,1.1-1c0.3-0.6,0.4-1.2,0.2-1.9
		c-0.2-0.6-0.6-1.2-1.2-1.5c-1.2-0.7-2.7-0.3-3.4,0.9c-0.7,1.2-0.3,2.7,0.9,3.4c0.2,0.1,0.4,0.2,0.6,0.3c0.3,0.1,0.5,0.1,0.8,0.1
		l2.2,8.3l-9.4-8.9L169,3.4z M174.7,10.7C174.7,10.7,174.7,10.7,174.7,10.7C174.6,10.7,174.6,10.7,174.7,10.7
		c-0.4,0.1-0.8,0.1-1.2-0.1c-0.7-0.4-1-1.3-0.6-2.1c0.4-0.6,1.1-0.9,1.7-0.7c0.1,0,0.2,0.1,0.4,0.2c0.7,0.4,1,1.3,0.6,2.1
		C175.4,10.3,175.1,10.6,174.7,10.7z"/>
	<path class="st1" d="M99.6,70.4c0.1-0.1,0.2-0.3,0.1-0.5l-4.4-16.4c0-0.2-0.2-0.3-0.3-0.3c-0.2,0-0.4,0-0.5,0.1l-6.3,6.8l-1.8,0.5
		c0,0,0,0,0,0c0,0,0,0,0,0l-6.3,1.7c-1,0.3-1.9,0.9-2.4,1.9c-0.5,0.9-0.7,2-0.4,3c0.3,1,0.9,1.9,1.9,2.4c0.3,0.2,0.6,0.3,1,0.4
		c0.7,0.2,1.4,0.2,2.1,0l1-0.3l1.3,4.8c0.3,1.1,1.1,1.8,2.1,2.1c0.5,0.1,1,0.1,1.5,0l1-0.3c0.5-0.1,0.9-0.5,1.2-0.9
		c0.3-0.5,0.3-1,0.2-1.5l-1.6-5.8l1.3-0.4l8.9,2.7C99.3,70.6,99.5,70.5,99.6,70.4z M83.4,68.6L81.9,69c-0.8,0.2-1.6,0.1-2.3-0.3
		c-0.7-0.4-1.2-1.1-1.4-1.8c0,0,0,0,0,0c-0.2-0.8-0.1-1.6,0.3-2.3c0.4-0.7,1.1-1.2,1.8-1.4l5.8-1.6l1.6,5.8L83.4,68.6
		C83.4,68.6,83.4,68.6,83.4,68.6z M89.5,74.2c0.1,0.3,0,0.5-0.1,0.8c-0.1,0.2-0.4,0.4-0.6,0.5l-1,0.3c-1.1,0.3-2.2-0.4-2.5-1.4
		l-1.3-4.8l3.9-1L89.5,74.2z M90.4,66.8c-0.1,0-0.2,0-0.3,0l-1.5,0.4l-1.6-5.8l1.5-0.4c0.1,0,0.2-0.1,0.2-0.1l5.8-6.3l3.9,14.7
		L90.4,66.8z"/>
	<path class="st1" d="M140.4,26.7l-2.2,1.5c-0.4,0.3-0.6,0.7-0.5,1.1c0,0.4,0.3,0.8,0.7,1l6.6,2.9c0.3,0.1,0.7,0.3,1,0.4
		c2,0.5,4,0.2,5.8-1c0,0,0,0,0,0c0.3-0.3,0.5-0.7,0.5-1.1c0-0.4-0.3-0.8-0.7-1c0,0,0,0,0,0l-9.1-4C141.8,26.2,141,26.3,140.4,26.7z
		 M151.2,31.4c0.1,0.1,0.1,0.2,0.1,0.2c0,0,0,0.2-0.1,0.2c0,0,0,0,0,0c-1.7,1.2-3.9,1.4-5.8,0.5l-6.6-2.9c-0.1-0.1-0.1-0.2-0.1-0.2
		c0,0,0-0.2,0.1-0.2l2.2-1.5c0.3-0.2,0.7-0.3,1-0.2c0.1,0,0.1,0,0.2,0.1L151.2,31.4L151.2,31.4z"/>
	<path class="st1" d="M146.5,22.8l-2.2,1.5c-0.4,0.3-0.6,0.7-0.5,1.1c0,0.4,0.3,0.8,0.7,1l11.3,5c0.3,0.1,0.7,0.3,1,0.4
		c2,0.5,4,0.2,5.8-1c0.4-0.2,0.6-0.7,0.5-1.1c0-0.4-0.3-0.8-0.7-1l0,0l-13.8-6.1C148,22.3,147.1,22.3,146.5,22.8z M162,29.6
		c0.1,0.1,0.1,0.2,0.1,0.2c0,0,0,0.2-0.1,0.2c-1.7,1.2-3.9,1.4-5.9,0.6l-11.3-5c-0.1-0.1-0.1-0.2-0.1-0.2c0,0,0-0.2,0.1-0.2l2.2-1.5
		c0.3-0.2,0.7-0.3,1-0.2c0.1,0,0.1,0,0.2,0.1L162,29.6L162,29.6z"/>
	<path class="st1" d="M47.9,51.4c-0.2-0.3-0.6-0.5-1-0.5c-0.4,0-0.8,0.3-0.9,0.7l0,0l-3.4,7.8c-0.3,0.6-0.2,1.3,0.2,1.9l1.3,1.9
		c0.2,0.2,0.4,0.4,0.6,0.5c0.1,0,0.3,0,0.4,0c0.4,0,0.8-0.3,0.9-0.7l2.5-5.7C49.4,55.4,49.2,53.2,47.9,51.4
		C48,51.4,48,51.4,47.9,51.4z M47.7,57l-2.5,5.7c0,0.1-0.1,0.1-0.1,0.1c0,0-0.1,0-0.1-0.1l-1.3-1.9c-0.2-0.3-0.2-0.7-0.1-1l3.4-7.8
		l0,0c0-0.1,0.1-0.1,0.1-0.1c0,0,0,0,0.1,0c0,0,0.1,0,0.1,0.1c0,0,0,0,0,0C48.2,53.5,48.4,55.3,47.7,57z"/>
	<path class="st1" d="M45.4,41.6c-0.4,0-0.8,0.3-0.9,0.7l-5.3,11.9c-0.3,0.6-0.2,1.4,0.2,1.9l1.3,1.9c0.2,0.2,0.4,0.4,0.6,0.5
		c0.1,0,0.3,0,0.4,0c0.4,0,0.8-0.3,0.9-0.7l4.3-9.8c0.9-1.9,0.7-4.2-0.6-5.9C46.2,41.7,45.8,41.5,45.4,41.6z M46.1,47.6l-4.3,9.8
		c0,0.1-0.1,0.1-0.1,0.1c0,0-0.1,0-0.2-0.1l-1.3-1.9c-0.2-0.3-0.2-0.7-0.1-1l5.3-11.9c0-0.1,0.1-0.1,0.1-0.1c0,0,0.1,0,0.1,0.1
		C46.6,44.1,46.8,46,46.1,47.6z"/>
	<path class="st1" d="M43.5,33c-0.5,0-0.9,0.3-1.1,0.8L35.6,49c-0.3,0.6-0.2,1.4,0.2,1.9l1.3,1.9c0.2,0.2,0.4,0.4,0.6,0.5
		c0.1,0,0.3,0,0.4,0c0.4,0,0.8-0.3,0.9-0.7l6.2-14c0.7-1.7,0.6-3.6-0.5-5.1C44.4,33.1,44,32.9,43.5,33z M44.3,38.3l-6.2,14
		c0,0.1-0.1,0.1-0.1,0.1c0,0-0.1,0-0.1-0.1l-1.3-1.9c-0.2-0.3-0.2-0.7-0.1-1l6.7-15.2c0.1-0.2,0.3-0.2,0.3-0.2
		c0.2,0,0.3,0.1,0.4,0.2C44.8,35.4,44.9,36.9,44.3,38.3z"/>
	<path class="st1" d="M114.9,85l-11.7,4.6c-0.9,0.3-1.5,1.1-1.7,2l-0.6,3.3c-0.1,0.5,0.1,1,0.5,1.4c0.2,0.1,0.3,0.2,0.5,0.3
		c0.3,0.1,0.6,0.1,0.9-0.1l8.6-3.3c2.8-1.1,4.9-3.6,5.4-6.6c0,0,0,0,0,0c0.1-0.5-0.1-1-0.5-1.3C115.9,84.9,115.4,84.9,114.9,85z
		 M115.7,86c0.1,0.1,0.2,0.2,0.2,0.4c0,0,0,0,0,0c-0.5,2.7-2.3,4.8-4.8,5.8l-8.6,3.3c-0.2,0.1-0.4,0-0.4-0.1
		c-0.1-0.1-0.2-0.3-0.2-0.4l0.6-3.3c0.1-0.6,0.5-1.1,1.1-1.3l11.7-4.6C115.4,85.9,115.6,86,115.7,86z"/>
	<path class="st1" d="M124.9,75.2c0.1-0.5-0.1-1-0.5-1.4c-0.4-0.3-0.9-0.4-1.4-0.2l-17.9,6.9c-0.9,0.3-1.5,1.1-1.7,2l-0.6,3.3
		c-0.1,0.5,0.1,1,0.5,1.4c0.2,0.1,0.3,0.2,0.5,0.3c0.3,0.1,0.6,0.1,0.9,0l14.7-5.7C122.3,80.7,124.3,78.3,124.9,75.2z M104.4,86.6
		c-0.2,0.1-0.4,0-0.4-0.1c-0.1-0.1-0.2-0.3-0.2-0.4l0.6-3.3c0.1-0.6,0.5-1.1,1.1-1.3l17.9-6.9c0.1,0,0.2,0,0.3,0
		c0.1,0,0.1,0.1,0.2,0.1c0.1,0.1,0.2,0.2,0.2,0.4c-0.5,2.7-2.3,4.9-4.9,5.9L104.4,86.6z"/>
	<path class="st1" d="M132,64.7c0.1-0.7-0.1-1.3-0.6-1.7c-0.5-0.4-1.2-0.5-1.8-0.3l-22.8,8.8c-0.9,0.3-1.5,1.1-1.7,2l-0.6,3.3
		c-0.1,0.5,0.1,1,0.5,1.4c0.2,0.1,0.3,0.2,0.5,0.3c0.3,0.1,0.6,0.1,0.9,0l21-8.1C129.8,69.4,131.5,67.3,132,64.7z M106,77.5
		c-0.2,0.1-0.4,0-0.4-0.1c-0.1-0.1-0.2-0.3-0.2-0.4l0.6-3.3c0.1-0.6,0.5-1.1,1.1-1.3l22.8-8.8c0.3-0.1,0.6-0.1,0.8,0.1
		c0.2,0.2,0.4,0.5,0.3,0.8c-0.4,2.3-1.9,4.1-4.1,4.9L106,77.5z"/>
	<path class="st1" d="M62,132.8L35,140c-0.6,0.2-1.2,0.6-1.5,1.2c-0.3,0.6-0.4,1.2-0.2,1.9l0.4,1.6h1l-0.5-1.8
		c-0.1-0.4-0.1-0.8,0.2-1.2c0.2-0.4,0.5-0.6,0.9-0.7c0,0,0,0,0,0l27-7.2c0.3-0.1,0.5-0.1,0.8,0c0.5,0.1,0.9,0.5,1.1,1.1l2.6,9.9h1
		l-2.7-10.1C64.7,133.2,63.4,132.4,62,132.8z"/>
	<path class="st1" d="M44,144.2c-0.3,0.1-0.6,0.2-0.9,0.4h3.8c0,0,0,0,0,0C45.9,144.1,44.9,144,44,144.2z"/>
	<path class="st1" d="M23.3,130.2l1.5,5.5c0,0.2,0.2,0.3,0.3,0.3c0.1,0,0.1,0,0.2,0l0.3,0l1.5,5.6c0,0.2,0.2,0.3,0.3,0.3
		c0,0,0,0,0,0c0.2,0,0.4,0,0.5-0.2l4.9-6.7l4.3-0.5c1.8-0.2,3.9-1.6,4.8-3.2l2-3.5c0.1-0.2,0.1-0.5-0.2-0.7l-3.5-2
		c-1.6-0.9-4.1-1.1-5.8-0.3l-4,1.7l-7.6-3.3c-0.2-0.1-0.4,0-0.5,0.1c-0.1,0.1-0.2,0.3-0.2,0.5l1.5,5.6l-0.3,0.1
		C23.3,129.7,23.2,129.9,23.3,130.2z M27.8,140.4l-1.2-4.5l5-0.6L27.8,140.4z M30.6,127.6c0.2,0,0.4,0,0.5-0.2l3.9-1.7
		c1.4-0.6,3.6-0.4,4.9,0.3l3,1.8l-1.8,3c-0.7,1.3-2.6,2.5-4.1,2.7L25.6,135l-1.2-4.7L30.6,127.6z M23.5,124.5l5.8,2.6l-4.6,2
		L23.5,124.5z"/>
	<path class="st1" d="M16.9,133l-1,1.7c-0.1,0.1-0.1,0.2,0,0.4c0,0.1,0.1,0.2,0.2,0.3l1.7,1c0.2,0.1,0.4,0.2,0.6,0.3
		c0.4,0.1,0.9,0.1,1.3,0c0.6-0.2,1.2-0.6,1.5-1.2c0.7-1.2,0.3-2.7-0.9-3.4C19.1,131.4,17.6,131.8,16.9,133z M20.3,135
		c-0.2,0.4-0.5,0.6-0.9,0.7c-0.4,0.1-0.8,0-1.2-0.2l-1.3-0.8l0.8-1.3c0.4-0.7,1.3-1,2.1-0.6C20.5,133.3,20.8,134.3,20.3,135z"/>
	<path class="st1" d="M21.1,116.6l-6.3-3.6c-0.3-0.2-0.6-0.2-0.9-0.1c-0.3,0.1-0.6,0.3-0.7,0.6l-3.7,6.4c0,0,0,0,0,0.1
		c0,0,0,0,0,0.1c0,0.1,0,0.2,0,0.2l1.3,4.8c0,0.1,0.1,0.1,0.1,0.2c0,0,0,0,0.1,0c0,0,0,0,0.1,0.1l3.9,2.3c0.1,0.1,0.2,0.1,0.3,0.1
		c0.5,0.1,1.1-0.1,1.4-0.6l5.1-8.8C21.8,117.7,21.6,116.9,21.1,116.6z M10.6,121.1l1.6,0.9l-0.9,1.6L10.6,121.1z M20.7,117.8
		l-5.1,8.8c-0.1,0.1-0.2,0.2-0.3,0.1l-3.5-2l1.5-2.6c0.1-0.2,0.1-0.5-0.2-0.7l-2.6-1.5l3.5-6c0-0.1,0.1-0.1,0.1-0.1c0,0,0.1,0,0.2,0
		l6.3,3.6c0.1,0,0.1,0.1,0.1,0.1C20.7,117.6,20.7,117.7,20.7,117.8z"/>
	<path class="st1" d="M1.4,141.9L0,142.4v1l1.8-0.7c2.4-0.9,4.2-3.1,4.7-5.6c0.1-0.7-0.1-1.3-0.6-1.7c-0.5-0.4-1.2-0.5-1.8-0.3
		l-4,1.6v1l4.4-1.7c0.3-0.1,0.6-0.1,0.8,0.1c0.2,0.2,0.4,0.5,0.3,0.8C5.1,139.2,3.5,141,1.4,141.9z"/>
	<path class="st1" d="M15.2,37.2L0,63.5v1.9l16.5-28.5c0.1-0.2,0.1-0.3,0-0.5c-0.1-0.1-0.3-0.2-0.4-0.2L0,36.7v1L15.2,37.2z"/>
	<path class="st1" d="M0,17.4c0.1,1.1,0.2,2.3,0.5,3.4c1.1,4.3,3.9,7.8,7.7,10c1.3,0.7,2.6,1.3,4,1.7c2.8,0.7,5.7,0.7,8.5,0
		c4.3-1.1,7.8-3.9,10-7.7c2.2-3.8,2.8-8.3,1.6-12.5C30,3.5,21-1.8,12.2,0.6C5.1,2.5,0.4,8.8,0,15.7V17.4z M3,8.8
		c2.1-3.6,5.4-6.2,9.4-7.2c2.7-0.7,5.5-0.7,8,0c5.2,1.4,9.5,5.4,11,11c1.1,4,0.5,8.2-1.6,11.8c-2.1,3.6-5.4,6.2-9.4,7.2
		c-4,1.1-8.2,0.5-11.8-1.6c-3.6-2.1-6.2-5.4-7.2-9.4C0.4,16.5,0.9,12.4,3,8.8z"/>
</g>
</svg>
