<?xml version="1.0" encoding="UTF-8"?>
<svg width="32px" height="29px" viewBox="0 0 32 29" version="1.1" xmlns="http://www.w3.org/2000/svg" xmlns:xlink="http://www.w3.org/1999/xlink">
    <!-- Generator: Sketch 48.2 (47327) - http://www.bohemiancoding.com/sketch -->
    <title>Group</title>
    <desc>Created with Sketch.</desc>
    <defs></defs>
    <g id="hermes-02" stroke="none" stroke-width="1" fill="none" fill-rule="evenodd" transform="translate(-29.000000, -26.000000)">
        <g id="Header" transform="translate(-47.000000, -101.000000)">
            <g id="logo" transform="translate(76.000000, 127.000000)">
                <g id="Group">
                    <path d="M13.9008964,0 C6.22270479,0 0,6.28675694 0,14.0416389 C0,17.1994167 1.03279753,20.1135139 2.77340031,22.4590903 L2.67969088,22.4506319 C2.67969088,22.4506319 3.66463679,25.0062569 1.43156105,28.2675486 C1.20825348,28.5917847 1.45748068,29.0348403 1.84627512,28.9929514 C4.38839258,28.7190625 6.16488408,27.6174653 7.36914992,26.437125 C9.31710974,27.4867639 11.5402164,28.0836806 13.9008964,28.0836806 C21.5790881,28.0836806 27.8037867,21.7969236 27.8037867,14.0416389 C27.8037867,6.28675694 21.5790881,0 13.9008964,0" id="Fill-51" fill="#FFFFFF"></path>
                    <path d="M18.2236867,16.1145765 L10.5933467,16.9449029 C10.1327748,16.9950487 9.73201749,17.2804168 9.53064191,17.7001112 L8.63143017,19.572021 C8.43603604,19.9788265 8.76102831,20.4438335 9.20564964,20.3955001 L14.7823575,19.7887154 C16.5169789,19.600014 18.0322802,18.5219793 18.7939186,16.9364446 L18.7939186,16.9336251 C18.9893127,16.5288335 18.6663142,16.0664446 18.2236867,16.1145765" id="Fill-53" fill="#A8DBEC"></path>
                    <path d="M24.7915372,10.6769947 L13.1855249,11.922585 C12.7269468,11.9719253 12.3241956,12.2574947 12.1228201,12.6779947 L11.2236083,14.5503072 C11.0282142,14.9569114 11.3512126,15.4215156 11.795834,15.3737864 L21.3442266,14.3491197 C23.0808417,14.1626336 24.6001307,13.0841961 25.3617691,11.4960433 C25.5571632,11.0916545 25.2341647,10.629467 24.7915372,10.6769947" id="Fill-54" fill="#A8DBEC"></path>
                    <path d="M30.4101153,5.24088761 L15.578106,6.83266539 C15.1195279,6.88200566 14.7167768,7.16757511 14.5154012,7.58807511 L13.6161895,9.46038761 C13.4207953,9.86679039 13.7437938,10.3315959 14.1884151,10.2838668 L27.8121709,8.82178344 C29.2836083,8.66369316 30.5716145,7.74938761 31.2176114,6.40330427 C31.4927582,5.82954733 31.0381678,5.17362372 30.4101153,5.24088761" id="Fill-55" fill="#A8DBEC"></path>
                </g>
            </g>
        </g>
    </g>
</svg>