<svg xmlns="http://www.w3.org/2000/svg" width="67.5" height="62.5" viewBox="0 0 100 93">
  <defs>
    <clipPath id="c">
      <rect width="0" height="100">
        <animate attributeName="width" values="0;104;0" dur="2.4s" repeatCount="indefinite"/>
      </rect>
    </clipPath>
    <clipPath id="b">
      <rect width="0" height="100">
        <animate attributeName="width" values="0;86;0" dur="2.4s" begin="0.3s" repeatCount="indefinite"/>
      </rect>
    </clipPath>
    <clipPath id="a">
      <rect width="0" height="100">
        <animate attributeName="width" values="0;62;0" dur="2.4s" begin="0.6s" repeatCount="indefinite"/>
      </rect>
    </clipPath>
  </defs>
  <path d="M44.4,0.2C19.9,0.2,0,20.3,0,45c0,10.1,3.3,19.4,8.9,26.9l-0.3,0c0,0,3.1,8.2-4,18.6	c-0.7,1,0.1,2.5,1.3,2.3c8.1-0.9,13.8-4.4,17.6-8.2c6.2,3.4,13.3,5.3,20.9,5.3c24.5,0,44.4-20.1,44.4-44.9	C88.8,20.3,68.9,0.2,44.4,0.2" fill="#6288fd"/>
  <path d="M58.2,51.7l-24.4,2.7c-1.5,0.2-2.8,1.1-3.4,2.4l-2.9,6C27,64,28,65.5,29.4,65.3	l17.8-1.9c5.5-0.6,10.4-4,12.8-9.1v0C60.7,53,59.6,51.5,58.2,51.7" fill="#a8dbec" clip-path="url(#a)"/>
  <path d="M79.2,34.3l-37.1,4c-1.5,0.2-2.8,1.1-3.4,2.4l-2.9,6c-0.6,1.3,0.4,2.8,1.8,2.6L68.2,46	c5.5-0.6,10.4-4,12.8-9.1C81.7,35.6,80.6,34.1,79.2,34.3" fill="#a8dbec" clip-path="url(#b)"/>
  <path d="M97.2,16.9L49.8,22c-1.5,0.2-2.8,1.1-3.4,2.4l-2.9,6c-0.6,1.3,0.4,2.8,1.8,2.6l43.5-4.7	c4.7-0.5,8.8-3.4,10.9-7.7C100.6,18.8,99.2,16.7,97.2,16.9" fill="#a8dbec" clip-path="url(#c)"/>
</svg>
