<svg version="1" xmlns="http://www.w3.org/2000/svg" width="426.667" height="426.667" viewBox="0 0 320.000000 320.000000"><path d="M135 20.6C72.8 28.5 25.2 72.1 12.9 132.3c-7.3 36.3-.4 72.9 20.1 105.2 4.7 7.4 6.5 15.7 5.7 26.3-.9 11.7-6.4 27.2-12.8 36.4-2.3 3.1-2.5 7.1-.4 8.8 1.1.9 3.1.9 8.6 0 14.8-2.2 30.4-9 41.3-17.7 3.2-2.7 6.4-5.2 7.1-5.7.9-.7 3.9.2 9.2 2.6 9.8 4.5 21.5 8.2 32.9 10.4 13.2 2.6 37.6 2.4 51.1-.4 27.6-5.9 50.7-18.2 70-37.4 38.2-37.7 51.5-91.2 35.7-143.1-1.5-4.8-3.1-8.7-3.5-8.7-.5 0-27.9 2.9-60.9 6.5s-61.9 6.6-64.1 6.7c-5.3.2-7.4-1.9-6.5-6.4 1-5 10.8-22.9 13.6-25 2-1.5 11.2-2.7 50.5-6.9 26.4-2.8 48.6-5.2 49.3-5.5 1.7-.5.9-1.9-6.4-10.5C235 46 206.3 29.1 177.2 23c-9.5-2-34.2-3.4-42.2-2.4zM262.5 129c2.2 2.5 1.6 5-3.3 12.6-6.2 9.6-18.1 17.8-29.6 20.4-7 1.5-97.5 11.1-102.1 10.8-3.3-.2-4.1-.8-4.9-3-.8-2.2 0-4.4 5-14.4 3.4-6.9 7-12.6 8.5-13.7 2.1-1.5 12.8-2.9 60.5-8.1 31.8-3.5 59.3-6.4 61-6.5 1.9-.1 3.8.6 4.9 1.9zm-66.7 53.6c4.4 3.1 1.6 10.1-8.2 20.2-5.6 5.8-12.4 10.1-20.1 12.6-7 2.2-66.4 8.7-68.7 7.5-3.7-2-3.2-5.2 2.9-17.5 4.4-9 6.5-12.3 8.9-13.6 2.3-1.4 12.7-2.9 42.5-6.2 21.7-2.4 39.6-4.4 39.9-4.5.3 0 1.6.6 2.8 1.5z"/></svg>