<?xml version="1.0" encoding="UTF-8"?>
<svg width="129px" height="29px" viewBox="0 0 129 29" version="1.1" xmlns="http://www.w3.org/2000/svg" xmlns:xlink="http://www.w3.org/1999/xlink">
    <!-- Generator: Sketch 48.2 (47327) - http://www.bohemiancoding.com/sketch -->
    <title>logo</title>
    <desc>Created with Sketch.</desc>
    <defs></defs>
    <g id="hermes-02" stroke="none" stroke-width="1" fill="none" fill-rule="evenodd" transform="translate(-29.000000, -26.000000)">
        <g id="Header" transform="translate(-47.000000, -101.000000)">
            <g id="logo" transform="translate(76.000000, 127.000000)">
                <path d="M13.9008964,0 C6.22270479,0 0,6.28675694 0,14.0416389 C0,17.1994167 1.03279753,20.1135139 2.77340031,22.4590903 L2.67969088,22.4506319 C2.67969088,22.4506319 3.66463679,25.0062569 1.43156105,28.2675486 C1.20825348,28.5917847 1.45748068,29.0348403 1.84627512,28.9929514 C4.38839258,28.7190625 6.16488408,27.6174653 7.36914992,26.437125 C9.31710974,27.4867639 11.5402164,28.0836806 13.9008964,28.0836806 C21.5790881,28.0836806 27.8037867,21.7969236 27.8037867,14.0416389 C27.8037867,6.28675694 21.5790881,0 13.9008964,0" id="Fill-51" fill="#FFFFFF"></path>
                <path d="M18.2236867,16.1145765 L10.5933467,16.9449029 C10.1327748,16.9950487 9.73201749,17.2804168 9.53064191,17.7001112 L8.63143017,19.572021 C8.43603604,19.9788265 8.76102831,20.4438335 9.20564964,20.3955001 L14.7823575,19.7887154 C16.5169789,19.600014 18.0322802,18.5219793 18.7939186,16.9364446 L18.7939186,16.9336251 C18.9893127,16.5288335 18.6663142,16.0664446 18.2236867,16.1145765" id="Fill-53" fill="#A8DBEC"></path>
                <path d="M24.7915372,10.6769947 L13.1855249,11.922585 C12.7269468,11.9719253 12.3241956,12.2574947 12.1228201,12.6779947 L11.2236083,14.5503072 C11.0282142,14.9569114 11.3512126,15.4215156 11.795834,15.3737864 L21.3442266,14.3491197 C23.0808417,14.1626336 24.6001307,13.0841961 25.3617691,11.4960433 C25.5571632,11.0916545 25.2341647,10.629467 24.7915372,10.6769947" id="Fill-54" fill="#A8DBEC"></path>
                <path d="M30.4101153,5.24088761 L15.578106,6.83266539 C15.1195279,6.88200566 14.7167768,7.16757511 14.5154012,7.58807511 L13.6161895,9.46038761 C13.4207953,9.86679039 13.7437938,10.3315959 14.1884151,10.2838668 L27.8121709,8.82178344 C29.2836083,8.66369316 30.5716145,7.74938761 31.2176114,6.40330427 C31.4927582,5.82954733 31.0381678,5.17362372 30.4101153,5.24088761" id="Fill-55" fill="#A8DBEC"></path>
                <path d="M38.0819165,6.51694444 C38.0819165,6.35261111 38.1915765,6.24305556 38.3530757,6.24305556 L41.0128284,6.24305556 C41.1763215,6.24305556 41.2839876,6.35261111 41.2839876,6.51694444 L41.2839876,13.8615972 C41.2839876,13.9711528 41.3378207,14.0259306 41.4474807,14.0259306 L48.473694,14.0259306 C48.5833539,14.0259306 48.637187,13.9711528 48.637187,13.8615972 L48.637187,6.51694444 C48.637187,6.35261111 48.7448532,6.24305556 48.9083462,6.24305556 L51.5680989,6.24305556 C51.7295981,6.24305556 51.8392581,6.35261111 51.8392581,6.51694444 L51.8392581,24.6038819 C51.8392581,24.7684167 51.7295981,24.8781736 51.5680989,24.8781736 L48.9083462,24.8781736 C48.7448532,24.8781736 48.637187,24.7684167 48.637187,24.6038819 L48.637187,17.0950972 C48.637187,16.9855417 48.5833539,16.9307639 48.473694,16.9307639 L41.4474807,16.9307639 C41.3378207,16.9307639 41.2839876,16.9855417 41.2839876,17.0950972 L41.2839876,24.6038819 C41.2839876,24.7684167 41.1763215,24.8781736 41.0128284,24.8781736 L38.3530757,24.8781736 C38.1915765,24.8781736 38.0819165,24.7684167 38.0819165,24.6038819 L38.0819165,6.51694444" id="Fill-67" fill="#FFFFFF"></path>
                <path d="M63.5868315,15.58025 C63.2339258,14.5116806 62.2569552,13.8813333 61.0367388,13.8813333 C59.788609,13.8813333 58.8116383,14.5116806 58.4587326,15.58025 C58.3490726,15.9091181 58.2952396,16.2379861 58.2952396,16.7037986 C58.2952396,16.8135556 58.3490726,16.8683333 58.4587326,16.8683333 L63.5868315,16.8683333 C63.6944977,16.8683333 63.7483308,16.8135556 63.7483308,16.7037986 C63.7483308,16.2379861 63.6944977,15.9091181 63.5868315,15.58025 Z M55.6913138,21.4175069 C55.4201546,20.5680486 55.2287481,19.5540556 55.2287481,18.1838056 C55.2287481,16.8135556 55.3922411,15.7721736 55.6634003,14.9227153 C56.3971252,12.6206389 58.4048995,11.2777778 61.0088253,11.2777778 C63.6944977,11.2777778 65.6484389,12.6754167 66.38017,14.9227153 C66.6792427,15.8543403 66.8148223,16.7587778 66.8148223,18.8963194 C66.8148223,19.0606528 66.7071561,19.1702083 66.5157496,19.1702083 L58.4587326,19.1702083 C58.3490726,19.1702083 58.2952396,19.2251875 58.2952396,19.3347431 C58.2952396,19.7183889 58.3769861,20.0472569 58.4846522,20.3487361 C58.9193045,21.6366181 59.9501082,22.3491319 61.4155641,22.3491319 C62.8810201,22.3491319 63.8300773,21.8011528 64.4820556,21.0886389 C64.6176352,20.9516944 64.7532148,20.9241042 64.8887944,21.0338611 L66.48983,22.4588889 C66.6254096,22.5684444 66.6254096,22.7055903 66.5157496,22.8425347 C65.4031994,24.1580069 63.5589181,25.0898333 61.1444049,25.0898333 C58.3769861,25.0898333 56.4230448,23.7193819 55.6913138,21.4175069 Z" id="Fill-68" fill="#FFFFFF"></path>
                <path d="M70.2541577,24.7883542 C70.0906646,24.7883542 69.9829985,24.6785972 69.9829985,24.5140625 L69.9829985,11.8531458 C69.9829985,11.6888125 70.0906646,11.5792569 70.2541577,11.5792569 L72.7504173,11.5792569 C72.9119165,11.5792569 73.0215765,11.6888125 73.0215765,11.8531458 L73.0215765,12.9768958 L73.0474961,12.9768958 C73.6715611,11.9629028 74.7841113,11.2777778 76.4389799,11.2777778 C77.4697836,11.2777778 78.5005873,11.6888125 79.1804791,12.3739375 C79.3160587,12.5110833 79.3419784,12.6206389 79.2343122,12.7577847 L77.7967697,14.5938472 C77.6871097,14.7307917 77.5515301,14.7581806 77.4159505,14.648625 C76.8197991,14.2649792 76.1957342,14.0182778 75.4899227,14.0182778 C73.781221,14.0182778 73.0215765,15.2513819 73.0215765,17.3617361 L73.0215765,24.5140625 C73.0215765,24.6785972 72.9119165,24.7883542 72.7504173,24.7883542 L70.2541577,24.7883542" id="Fill-69" fill="#FFFFFF"></path>
                <path d="M97.8266615,24.7883542 C97.6631685,24.7883542 97.5555023,24.6785972 97.5555023,24.5140625 L97.5555023,16.8957222 C97.5555023,15.1966042 96.7141113,14.0182778 95.0871561,14.0182778 C93.5120402,14.0182778 92.5908964,15.1966042 92.5908964,16.8957222 L92.5908964,24.5140625 C92.5908964,24.6785972 92.4812365,24.7883542 92.3197372,24.7883542 L89.8234776,24.7883542 C89.6599845,24.7883542 89.5523184,24.6785972 89.5523184,24.5140625 L89.5523184,16.8957222 C89.5523184,15.1966042 88.7109274,14.0182778 87.0819784,14.0182778 C85.5088563,14.0182778 84.5857187,15.1966042 84.5857187,16.8957222 L84.5857187,24.5140625 C84.5857187,24.6785972 84.4780526,24.7883542 84.3145595,24.7883542 L81.8182998,24.7883542 C81.6568006,24.7883542 81.5471406,24.6785972 81.5471406,24.5140625 L81.5471406,11.8531458 C81.5471406,11.6888125 81.6568006,11.5792569 81.8182998,11.5792569 L84.3145595,11.5792569 C84.4780526,11.5792569 84.5857187,11.6888125 84.5857187,11.8531458 L84.5857187,12.8125625 L84.6136321,12.8125625 C85.183864,11.9902917 86.3223338,11.2777778 88.058949,11.2777778 C89.6061515,11.2777778 90.8542813,11.908125 91.6398454,13.0316736 L91.6677589,13.0316736 C92.672643,11.9357153 93.9746059,11.2777778 95.8468006,11.2777778 C98.8853787,11.2777778 100.59408,13.3605417 100.59408,16.1832083 L100.59408,24.5140625 C100.59408,24.6785972 100.486414,24.7883542 100.322921,24.7883542 L97.8266615,24.7883542" id="Fill-70" fill="#FFFFFF"></path>
                <path d="M112.0366,15.58025 C111.683694,14.5116806 110.706723,13.8813333 109.486507,13.8813333 C108.238377,13.8813333 107.261406,14.5116806 106.908501,15.58025 C106.798841,15.9091181 106.745008,16.2379861 106.745008,16.7037986 C106.745008,16.8135556 106.798841,16.8683333 106.908501,16.8683333 L112.0366,16.8683333 C112.144266,16.8683333 112.198099,16.8135556 112.198099,16.7037986 C112.198099,16.2379861 112.144266,15.9091181 112.0366,15.58025 Z M104.141082,21.4175069 C103.869923,20.5680486 103.678516,19.5540556 103.678516,18.1838056 C103.678516,16.8135556 103.842009,15.7721736 104.113168,14.9227153 C104.846893,12.6206389 106.854668,11.2777778 109.458594,11.2777778 C112.144266,11.2777778 114.098207,12.6754167 114.829938,14.9227153 C115.129011,15.8543403 115.26459,16.7587778 115.26459,18.8963194 C115.26459,19.0606528 115.156924,19.1702083 114.965518,19.1702083 L106.908501,19.1702083 C106.798841,19.1702083 106.745008,19.2251875 106.745008,19.3347431 C106.745008,19.7183889 106.826754,20.0472569 106.93442,20.3487361 C107.369073,21.6366181 108.399876,22.3491319 109.865332,22.3491319 C111.330788,22.3491319 112.279845,21.8011528 112.931824,21.0886389 C113.067403,20.9516944 113.202983,20.9241042 113.338563,21.0338611 L114.939598,22.4588889 C115.075178,22.5684444 115.075178,22.7055903 114.965518,22.8425347 C113.852968,24.1580069 112.008686,25.0898333 109.594173,25.0898333 C106.826754,25.0898333 104.872813,23.7193819 104.141082,21.4175069 Z" id="Fill-71" fill="#FFFFFF"></path>
                <path d="M117.715989,23.0068681 C117.608323,22.8973125 117.608323,22.7329792 117.715989,22.6234236 L119.263192,20.9790833 C119.370858,20.8695278 119.534351,20.8695278 119.642017,20.9790833 C120.591074,21.8559306 122.110363,22.4862778 123.468153,22.4862778 C125.069189,22.4862778 125.882666,21.8287431 125.882666,20.9241042 C125.882666,20.1294236 125.422094,19.6362222 123.711399,19.4716875 L122.30177,19.3347431 C119.642017,19.0606528 118.286221,17.6906042 118.286221,15.4433056 C118.286221,12.8947292 120.102589,11.2777778 123.358493,11.2777778 C125.394181,11.2777778 127.102883,11.9629028 128.269266,12.8947292 C128.406839,13.0042847 128.406839,13.1688194 128.325093,13.2781736 L126.995216,14.8953264 C126.885556,15.0320694 126.749977,15.0320694 126.614397,14.9499028 C125.80092,14.3745347 124.498957,13.8539444 123.196994,13.8539444 C121.895031,13.8539444 121.215139,14.4293125 121.215139,15.2241944 C121.215139,15.9912847 121.677705,16.4572986 123.358493,16.6216319 L124.770116,16.7587778 C127.509621,17.0326667 128.813578,18.4576944 128.813578,20.622625 C128.813578,23.2535694 126.91347,25.0898333 123.332573,25.0898333 C120.646901,25.0898333 118.800626,24.0208611 117.715989,23.0068681" id="Fill-72" fill="#FFFFFF"></path>
            </g>
        </g>
    </g>
</svg>